<svg width="100" height="100" viewBox="0 0 100 100" fill="none" xmlns="http://www.w3.org/2000/svg">
<rect x="0.5" y="0.5" width="99" height="99" rx="49.5" stroke="white"/>
<g clip-path="url(#clip0_880_461)">
<path d="M44 41.9998V57.9998C43.9999 58.1777 44.0474 58.3524 44.1374 58.5059C44.2274 58.6594 44.3567 58.7861 44.512 58.8729C44.6673 58.9598 44.843 59.0036 45.0209 58.9999C45.1988 58.9961 45.3725 58.945 45.524 58.8518L58.524 50.8518C58.6696 50.7623 58.7898 50.637 58.8733 50.4879C58.9567 50.3387 59.0005 50.1707 59.0005 49.9998C59.0005 49.8289 58.9567 49.6609 58.8733 49.5117C58.7898 49.3626 58.6696 49.2373 58.524 49.1478L45.524 41.1478C45.3725 41.0546 45.1988 41.0034 45.0209 40.9997C44.843 40.996 44.6673 41.0398 44.512 41.1267C44.3567 41.2135 44.2274 41.3402 44.1374 41.4937C44.0474 41.6471 43.9999 41.8219 44 41.9998Z" fill="white"/>
</g>
<defs>
<clipPath id="clip0_880_461">
<rect width="24" height="24" fill="white" transform="translate(38 38)"/>
</clipPath>
</defs>
</svg>
