<svg width="81" height="80" viewBox="0 0 81 80" fill="none" xmlns="http://www.w3.org/2000/svg">
<g clip-path="url(#clip0_254_319)">
<path d="M60.5 26.6667C63.1522 26.6667 65.6957 27.7203 67.5711 29.5957C69.4464 31.471 70.5 34.0146 70.5 36.6667C70.5 39.3189 69.4464 41.8625 67.5711 43.7378C65.6957 45.6132 63.1522 46.6667 60.5 46.6667" stroke="#F6CA4A" stroke-width="5" stroke-linecap="round" stroke-linejoin="round"/>
<path d="M33.834 26.6667V63.3334C33.834 64.2175 33.4828 65.0653 32.8577 65.6904C32.2326 66.3156 31.3847 66.6667 30.5007 66.6667H27.1673C26.2833 66.6667 25.4354 66.3156 24.8103 65.6904C24.1852 65.0653 23.834 64.2175 23.834 63.3334V46.6667" stroke="#F6CA4A" stroke-width="5" stroke-linecap="round" stroke-linejoin="round"/>
<path d="M40.5 26.6666L55.58 14.0999C56.0182 13.7349 56.5513 13.5024 57.1169 13.4296C57.6825 13.3568 58.2572 13.4467 58.7735 13.6887C59.2898 13.9308 59.7265 14.3151 60.0323 14.7964C60.338 15.2778 60.5003 15.8363 60.5 16.4066V56.9266C60.5003 57.4968 60.338 58.0554 60.0323 58.5367C59.7265 59.0181 59.2898 59.4023 58.7735 59.6444C58.2572 59.8865 57.6825 59.9764 57.1169 59.9036C56.5513 59.8307 56.0182 59.5982 55.58 59.2332L40.5 46.6666H13.8333C12.9493 46.6666 12.1014 46.3154 11.4763 45.6903C10.8512 45.0651 10.5 44.2173 10.5 43.3332V29.9999C10.5 29.1159 10.8512 28.268 11.4763 27.6429C12.1014 27.0178 12.9493 26.6666 13.8333 26.6666H40.5Z" stroke="#F6CA4A" stroke-width="5" stroke-linecap="round" stroke-linejoin="round"/>
</g>
<defs>
<clipPath id="clip0_254_319">
<rect width="80" height="80" fill="white" transform="translate(0.5)"/>
</clipPath>
</defs>
</svg>
