<svg width="24" height="25" viewBox="0 0 24 25" fill="none" xmlns="http://www.w3.org/2000/svg">
<g clip-path="url(#clip0_880_673)">
<path d="M4 8.75293C4 7.69206 4.42143 6.67465 5.17157 5.9245C5.92172 5.17436 6.93913 4.75293 8 4.75293H16C17.0609 4.75293 18.0783 5.17436 18.8284 5.9245C19.5786 6.67465 20 7.69206 20 8.75293V16.7529C20 17.8138 19.5786 18.8312 18.8284 19.5814C18.0783 20.3315 17.0609 20.7529 16 20.7529H8C6.93913 20.7529 5.92172 20.3315 5.17157 19.5814C4.42143 18.8312 4 17.8138 4 16.7529V8.75293Z" stroke="white" stroke-width="1.5" stroke-linecap="round" stroke-linejoin="round"/>
<path d="M9 12.7529C9 13.5486 9.31607 14.3116 9.87868 14.8743C10.4413 15.4369 11.2044 15.7529 12 15.7529C12.7956 15.7529 13.5587 15.4369 14.1213 14.8743C14.6839 14.3116 15 13.5486 15 12.7529C15 11.9573 14.6839 11.1942 14.1213 10.6316C13.5587 10.069 12.7956 9.75293 12 9.75293C11.2044 9.75293 10.4413 10.069 9.87868 10.6316C9.31607 11.1942 9 11.9573 9 12.7529Z" stroke="white" stroke-width="1.5" stroke-linecap="round" stroke-linejoin="round"/>
<path d="M16.5 8.25293V8.26293" stroke="white" stroke-width="1.5" stroke-linecap="round" stroke-linejoin="round"/>
</g>
<defs>
<clipPath id="clip0_880_673">
<rect width="24" height="24" fill="white" transform="translate(0 0.75293)"/>
</clipPath>
</defs>
</svg>
