<svg width="80" height="32" viewBox="0 0 80 32" fill="none" xmlns="http://www.w3.org/2000/svg">
<path d="M10.6943 10.3686C10.6943 10.3686 10.4673 7.68779 11.3468 5.51758C11.3468 5.51758 13.7723 6.56723 15.3468 8.31191C15.3468 8.31191 13.0914 6.70907 11.829 6.34028C11.829 6.34028 11.0631 7.61687 10.6943 10.3686Z" fill="#F7F4F0"/>
<path d="M19.9421 4.89362C19.6868 5.00709 19.4409 5.13475 19.2045 5.2766C18.7222 4.52482 18.1549 3.84397 17.5024 3.21986C16.9255 2.6714 16.3109 2.19385 15.6584 1.78724C15.0343 2.22222 14.4527 2.72813 13.9137 3.30496C13.2896 3.95745 12.7506 4.66667 12.2967 5.43262C11.8712 5.19149 11.5875 5.06383 11.5449 5.04965C12.0839 3.75887 12.8641 2.56738 13.857 1.51773C14.4054 0.950356 14.9917 0.444445 15.6158 0C16.2683 0.411348 16.8783 0.893618 17.4456 1.43263C18.5095 2.43972 19.3463 3.61702 19.9421 4.89362Z" fill="#F7F3F5"/>
<path d="M13.1061 11.6312C12.4252 11.4515 11.7302 11.3333 11.0209 11.2766C11.0209 11.2955 11.0209 11.3144 11.0209 11.3333C11.1628 12.3688 11.4323 13.3759 11.8153 14.3404C11.8342 14.3782 11.8484 14.4161 11.8578 14.4539C11.8389 14.4633 11.82 14.4728 11.8011 14.4823C11.7822 14.4444 11.7633 14.4066 11.7443 14.3688C11.6782 14.2269 11.6167 14.0804 11.56 13.9291C11.177 13.0213 10.9075 12.0567 10.7798 11.0638C10.7704 11.0449 10.7656 11.026 10.7656 11.0071C11.6167 11.0922 12.4536 11.2482 13.2479 11.5035C13.2006 11.5414 13.1533 11.5839 13.1061 11.6312Z" fill="#FCF7F7"/>
<path d="M14.2131 11.8582C14.1942 11.8866 14.18 11.9197 14.1705 11.9575C14.1422 11.9433 14.128 11.9433 14.0996 11.9291C14.1185 11.9008 14.1327 11.8677 14.1422 11.8298C14.1705 11.8393 14.1942 11.8487 14.2131 11.8582Z" fill="#4EB709"/>
<path d="M21.2062 20.9788C20.0998 20.8937 19.0076 20.6384 17.9863 20.227C18.0052 20.1798 18.0242 20.1325 18.0431 20.0852C18.6388 20.2743 19.244 20.4162 19.8587 20.5107C20.1896 20.5675 20.5253 20.61 20.8658 20.6384C20.8563 20.5438 20.8421 20.454 20.8232 20.3689C20.6955 19.4611 20.4686 18.5817 20.1424 17.7164L20.2416 17.6597C20.6955 18.6384 21.0076 19.6597 21.1636 20.7093C21.1825 20.8039 21.1967 20.8937 21.2062 20.9788Z" fill="#F9FBFD"/>
<path d="M13.7158 20.5816C12.9309 20.8747 12.1224 21.0827 11.2903 21.2057C11.243 21.2151 11.1957 21.2199 11.1484 21.2199C11.2477 20.1135 11.5031 19.0213 11.9002 18C11.9475 18.0189 11.9948 18.0331 12.0421 18.0426C12.0326 18.0804 12.0231 18.1182 12.0137 18.156C12.0042 18.156 11.9995 18.1608 11.9995 18.1702C11.7584 19.0355 11.5882 19.9291 11.503 20.8511C11.5503 20.8416 11.5976 20.8322 11.6449 20.8227C12.269 20.7376 12.8837 20.6099 13.4889 20.4397C13.5645 20.4965 13.6402 20.5437 13.7158 20.5816Z" fill="#F9F7F4"/>
<path d="M20.9781 10.78C20.8788 11.9006 20.6235 12.9928 20.2121 14.0283C20.1743 14.0093 20.1365 13.9952 20.0986 13.9857C20.3681 13.0779 20.5525 12.1275 20.6376 11.163C20.6093 11.163 20.5809 11.1677 20.5525 11.1772C19.5596 11.3049 18.5951 11.546 17.6731 11.8722C17.6447 11.8911 17.6116 11.9053 17.5738 11.9148C17.5643 11.877 17.5502 11.8391 17.5312 11.8013C17.5596 11.7824 17.5927 11.7682 17.6305 11.7588C18.6518 11.2765 19.7582 10.9502 20.893 10.78C20.9213 10.78 20.9497 10.78 20.9781 10.78Z" fill="#F8F7FA"/>
<path d="M31.9847 15.6313C31.5781 16.2743 31.1053 16.8843 30.5663 17.4611C29.6018 18.454 28.5096 19.2625 27.3039 19.8582C27.2188 19.6502 27.129 19.4469 27.0344 19.2483C27.8287 18.7519 28.5521 18.1419 29.2188 17.4611C29.7578 16.8843 30.2306 16.2743 30.6372 15.6313C30.1975 14.993 29.7011 14.4114 29.1337 13.8724C28.3677 13.149 27.5308 12.5391 26.623 12.0568C26.7649 11.759 26.8358 11.5604 26.8358 11.532L26.85 11.5178C28.1833 12.0568 29.4032 12.8512 30.4812 13.8724C31.0486 14.4114 31.5498 14.9977 31.9847 15.6313Z" fill="#F9F9F9"/>
<path d="M20.4252 26.9786C19.8862 28.241 19.1203 29.4325 18.1274 30.4822C17.5884 31.0496 16.9926 31.5602 16.3685 31.9999C15.716 31.5838 15.1061 31.1063 14.5387 30.5673C13.56 29.6311 12.7657 28.5531 12.1699 27.3758C12.378 27.3001 12.5765 27.215 12.7657 27.1205C13.2338 27.8439 13.8011 28.5105 14.4394 29.1205C15.0068 29.6595 15.6167 30.1418 16.2692 30.5531C16.8933 30.1134 17.4891 29.6027 18.0281 29.0354C18.7373 28.2978 19.3189 27.4893 19.8011 26.624C20.1274 26.8226 20.3543 26.9361 20.4252 26.9786Z" fill="#F8FAF7"/>
<path d="M2.70922 18.1279C3.44681 18.8371 4.2695 19.4328 5.13475 19.9151C5.04964 20.1279 4.97872 20.2981 4.95035 20.3974C3.68794 19.8584 2.52482 19.0924 1.50354 18.1279C0.936167 17.5888 0.439716 17.0073 0 16.369C0.406619 15.726 0.879433 15.116 1.41844 14.5392C2.36879 13.5463 3.46099 12.752 4.65248 12.1704C4.73759 12.3406 4.83215 12.5061 4.93617 12.6669C4.09929 13.1775 3.33333 13.8158 2.62411 14.5392C2.08511 15.1208 1.60284 15.7307 1.20567 16.369C1.63121 17.0073 2.14184 17.5888 2.70922 18.1279Z" fill="#FDFDFD"/>
<path d="M20.3973 6.01418C20.3122 5.76831 20.2176 5.52718 20.1136 5.29077C19.8866 5.39479 19.6597 5.50827 19.4328 5.6312C18.3973 6.19858 17.4469 6.93616 16.6101 7.8156C16.4824 7.95744 16.3547 8.09929 16.2271 8.24113C16.2176 8.25059 16.2129 8.26004 16.2129 8.2695C16.2129 8.28368 16.2271 8.29787 16.2413 8.31205C16.2507 8.30259 16.2602 8.29314 16.2696 8.28368C17.3193 7.39006 18.4966 6.69503 19.759 6.22694C20.3973 7.43262 20.8086 8.75177 20.9788 10.1277C20.993 10.1277 21.0072 10.1277 21.0072 10.1277C21.0167 9.91961 21.0214 9.71631 21.0214 9.51772C20.993 8.29787 20.7803 7.12056 20.3973 6.01418Z" fill="#FEFDFB"/>
<path d="M25.7312 11.1347C24.6957 10.8226 23.6035 10.6808 22.5113 10.6808C22.2939 10.6713 22.0811 10.676 21.873 10.6949C23.1638 10.78 24.4262 11.0637 25.6035 11.5602C25.2064 12.9219 24.5539 14.1985 23.6745 15.3474C23.6839 15.3474 23.6934 15.3521 23.7028 15.3616C23.8447 15.2198 23.9865 15.0779 24.1284 14.9361C25.0078 14.0141 25.717 12.9644 26.2277 11.8439C26.3033 11.6831 26.3742 11.5224 26.4404 11.3616C26.204 11.2765 25.9676 11.2008 25.7312 11.1347Z" fill="#FEF8F8"/>
<path d="M26.6235 10.9078L26.5384 10.8794C26.3114 10.7943 26.0703 10.7234 25.8291 10.6667C26.0135 9.80143 26.0845 8.89362 26.0703 7.98582C26.0419 7.20095 25.9426 6.435 25.7724 5.68795C25.0206 5.54611 24.2405 5.48937 23.4603 5.51774C22.6093 5.54611 21.7582 5.65958 20.9497 5.85816C20.822 5.43263 20.7228 5.17731 20.7086 5.13476L20.666 5.04965C21.9284 4.53902 23.2901 4.25533 24.6802 4.21277C25.4651 4.19386 26.2358 4.2506 26.9923 4.38298C27.1719 5.13003 27.2712 5.89599 27.2901 6.68086C27.3327 8.14185 27.0916 9.57448 26.6235 10.9078Z" fill="#F7F4FC"/>
<path d="M17.5743 11.6311C17.5365 11.65 17.5034 11.6689 17.475 11.6878C17.0211 10.78 16.4537 9.92897 15.7871 9.13464C15.2906 9.80131 14.8509 10.4963 14.4963 11.2197C14.4585 11.2197 14.4206 11.215 14.3828 11.2056C14.7516 10.3545 15.2197 9.5318 15.8013 8.78003C16.5388 9.64528 17.1346 10.6098 17.5743 11.6311Z" fill="#FCF6F8"/>
<path d="M17.887 20.0425C17.8775 20.0804 17.8634 20.1229 17.8444 20.1702C17.7972 20.3026 17.7452 20.4302 17.6884 20.5532C17.3338 21.4326 16.8799 22.2695 16.3267 23.0213C16.2794 23.0874 16.2321 23.1489 16.1849 23.2056C15.5466 22.4539 15.0076 21.617 14.582 20.7376C14.6388 20.7281 14.7002 20.7139 14.7664 20.695C14.8988 20.9409 15.0454 21.1867 15.2061 21.4326C15.2156 21.4326 15.2203 21.4373 15.2203 21.4468C15.5135 21.8912 15.835 22.3168 16.1849 22.7234C16.2321 22.6666 16.2794 22.6052 16.3267 22.539C16.8799 21.7872 17.348 20.9787 17.7452 20.1276C17.7641 20.0898 17.783 20.052 17.8019 20.0142C17.8303 20.0236 17.8586 20.0331 17.887 20.0425Z" fill="#F5F8F4"/>
<path d="M11.8715 17.7305C11.8999 17.7494 11.933 17.7683 11.9708 17.7873C11.9613 17.8251 11.9519 17.8629 11.9424 17.9007C11.9046 17.8818 11.862 17.8676 11.8148 17.8582C11.7297 17.8298 11.6493 17.7967 11.5736 17.7589C11.5547 17.7589 11.5405 17.7542 11.5311 17.7447C10.5807 17.3759 9.67291 16.8653 8.83603 16.2553C8.81712 16.2364 8.79821 16.2175 8.7793 16.1986C9.64455 15.4468 10.6233 14.8511 11.6587 14.4114C11.6776 14.4492 11.6966 14.487 11.7155 14.5249C10.8502 14.9929 10.0417 15.5461 9.28994 16.1844C9.3183 16.2033 9.34195 16.2175 9.36086 16.227C10.141 16.8227 10.9779 17.3334 11.8715 17.7305Z" fill="#FAF8F6"/>
<path d="M20.9351 17.1064C21.5498 16.7282 22.1361 16.3027 22.694 15.8298C22.6751 15.8109 22.6515 15.7967 22.6231 15.7873C21.8288 15.1915 20.9919 14.6809 20.1125 14.2696C20.0841 14.2601 20.0557 14.2459 20.0273 14.227C20.0273 14.227 20.0273 14.2223 20.0273 14.2128C20.0368 14.175 20.0463 14.1419 20.0557 14.1135C20.0557 14.1135 20.1408 14.1277 20.1692 14.1419C21.2188 14.5249 22.2259 15.0639 23.1337 15.7447C23.1621 15.7731 23.1905 15.7873 23.2046 15.8015C22.3536 16.5249 21.4032 17.1206 20.3961 17.5603C20.6089 17.4327 20.7933 17.2766 20.9351 17.1064Z" fill="#F7F7FA"/>
<path d="M26.4409 19.6027C25.9019 18.5814 25.2069 17.6452 24.37 16.8084C24.2424 16.6807 24.1147 16.553 23.9729 16.4396C23.9445 16.4207 23.9208 16.397 23.9019 16.3687C23.9208 16.397 23.9398 16.4254 23.9587 16.4538C24.8523 17.4609 25.5331 18.5956 26.0296 19.8155C24.7955 20.4396 23.448 20.8226 22.0438 20.9644C21.987 20.9739 21.9256 20.9833 21.8594 20.9928C21.8594 20.9928 21.8736 21.007 21.8736 21.0211C21.9303 21.0211 21.987 21.0211 22.0438 21.0211C22.1005 21.0211 22.1572 21.0259 22.214 21.0353C23.6041 21.0353 24.9516 20.78 26.214 20.3261C26.3747 20.2599 26.5402 20.1937 26.7104 20.1275C26.6253 19.9478 26.5355 19.7729 26.4409 19.6027Z" fill="#FAEFF3"/>
<path d="M21.2755 21.6453V21.6311C21.2566 21.6311 21.233 21.6311 21.2046 21.6311V21.6453C21.1337 23.0354 20.8074 24.4112 20.2401 25.7162C18.9493 25.2623 17.7294 24.5815 16.6514 23.6737C16.6372 23.6878 16.6372 23.6878 16.623 23.702C16.7082 23.7729 16.7791 23.8722 16.8642 23.9432C17.8004 24.8793 18.8784 25.6311 20.0273 26.1843C20.2164 26.2789 20.415 26.3687 20.623 26.4538C20.6892 26.2647 20.7507 26.0803 20.8074 25.9006C21.233 24.5105 21.389 23.0779 21.2755 21.6453Z" fill="#F9F7FC"/>
<path d="M27.6018 27.0071C26.8548 27.1773 26.0888 27.2719 25.304 27.2908C23.8713 27.3333 22.4671 27.1064 21.1621 26.6525C21.2472 26.4539 21.3276 26.2553 21.4032 26.0567C22.3536 26.2695 23.3465 26.3688 24.3536 26.3404C25.1385 26.3215 25.9044 26.2269 26.6515 26.0567C26.7791 25.305 26.8359 24.5248 26.8217 23.7447C26.7933 22.8085 26.6515 21.9007 26.4103 21.0213C26.694 20.9503 26.9068 20.8936 27.0203 20.8652C27.4742 22.0709 27.7437 23.3617 27.772 24.695C27.8004 25.4752 27.7437 26.2411 27.6018 27.0071Z" fill="#ECEEF0"/>
<path d="M6.18517 20.4115C6.58234 19.1491 7.19227 17.9718 8.00078 16.908C7.9535 16.9647 7.90622 17.0167 7.85893 17.064C6.96532 18.0002 6.2561 19.064 5.73127 20.2129C5.66508 20.3548 5.60361 20.4966 5.54688 20.6385C5.71709 20.6952 5.8873 20.7519 6.05751 20.8087C7.14971 21.1491 8.29865 21.3193 9.47595 21.3193C9.66508 21.3193 9.85421 21.3146 10.0433 21.3051C8.69581 21.2342 7.39085 20.9221 6.18517 20.4115Z" fill="#F5F9FC"/>
<path d="M11.2761 26.9647C10.042 27.4612 8.7087 27.7448 7.30445 27.7874C6.5243 27.8016 5.74416 27.7448 4.99239 27.6172C4.82217 26.8654 4.72288 26.0995 4.69451 25.3193C4.65196 23.8867 4.87891 22.4966 5.33281 21.1917C5.53139 21.2578 5.72998 21.3146 5.92856 21.3619C5.71579 22.2839 5.6165 23.2484 5.64487 24.2129C5.67324 25.0073 5.77253 25.7732 5.94274 26.525C6.69452 26.6526 7.47466 26.7094 8.2548 26.681C9.23352 26.6668 10.1697 26.5108 11.0775 26.2555C11.1626 26.5675 11.2193 26.8087 11.2761 26.9647Z" fill="#F3F1EC"/>
<path d="M15.7308 23.8014C15.6741 23.8487 15.6173 23.9007 15.5606 23.9575C14.5393 24.8511 13.362 25.5745 12.0712 26.071C11.5038 24.9362 11.1351 23.7022 10.9648 22.4114C10.9648 22.487 10.9648 22.5579 10.9648 22.6241C10.9932 23.8724 11.2202 25.0922 11.6315 26.227C11.6977 26.435 11.7734 26.6431 11.8585 26.8511C12.0287 26.7754 12.1942 26.6903 12.3549 26.5958C13.6031 25.9433 14.7095 25.078 15.6315 24.0284C15.6788 23.9717 15.7261 23.9196 15.7734 23.8724C15.7544 23.8535 15.7403 23.8298 15.7308 23.8014Z" fill="#FDFCFE"/>
<path d="M10.1142 11.0071C10.1142 10.9929 10.1142 10.9929 10.1142 10.9788C10.0386 10.9788 9.96292 10.9788 9.88727 10.9788C9.84945 10.9788 9.81163 10.9788 9.7738 10.9788C8.36954 10.9788 6.99366 11.2199 5.71706 11.7022C5.57522 11.7494 5.42864 11.8062 5.27734 11.8724C5.35299 12.0331 5.43337 12.1892 5.51848 12.3405C6.05749 13.3759 6.76671 14.3405 7.61777 15.1915C7.75961 15.3239 7.89673 15.4516 8.02912 15.5745C7.10713 14.5532 6.39791 13.3901 5.88728 12.1419C7.1355 11.532 8.48302 11.149 9.90146 11.0213C9.96765 11.0119 10.0386 11.0071 10.1142 11.0071Z" fill="#F7FAF6"/>
<path d="M10.8647 5.36163C10.7985 5.53185 10.737 5.71152 10.6803 5.90064C9.65898 5.64532 8.60933 5.51767 7.53132 5.56022C6.73699 5.5744 5.97104 5.67369 5.23345 5.84391C5.0916 6.59568 5.04905 7.37582 5.06323 8.15596C5.0916 9.17724 5.24763 10.1701 5.53132 11.1205C5.33274 11.2056 5.16252 11.2907 5.04905 11.3333C4.53841 10.0709 4.25472 8.70915 4.21217 7.3049C4.1838 6.52476 4.24054 5.7588 4.38238 4.99284C5.11997 4.82263 5.88593 4.72807 6.68025 4.70915C8.12706 4.6666 9.5455 4.89355 10.8647 5.36163Z" fill="#F8F5F5"/>
<path d="M20.3265 15.2481L19.3619 14.6666L14.6669 11.8297C13.8726 11.3474 13.1208 11.7871 13.135 12.7233L13.2201 17.1772L13.2626 19.2623C13.2768 20.1985 13.9718 20.5956 14.7945 20.1275L20.3123 16.9786C21.135 16.5105 21.135 15.7162 20.3265 15.2481Z" fill="#F9F4F5"/>
<path d="M40.3407 12.3831V19.0355H39.0924V16.1845H35.6598V19.0355H34.4258V12.3831H35.6598V15.1348H39.0924V12.3831H40.3407Z" fill="white"/>
<path d="M45.8015 16.6809V19.0355H44.5675V16.7093L41.9434 12.3831H43.2767L45.22 15.6171L47.1916 12.3831H48.3973L45.8015 16.6809Z" fill="white"/>
<path fill-rule="evenodd" clip-rule="evenodd" d="M54.454 12.8086C54.8796 12.9977 55.2058 13.2719 55.4327 13.6313C55.6597 13.9812 55.7732 14.402 55.7732 14.8937C55.7732 15.376 55.6597 15.7968 55.4327 16.1561C55.2058 16.506 54.8796 16.7802 54.454 16.9788C54.0285 17.1679 53.5273 17.2625 52.9505 17.2625H51.4469V19.1774H50.2129V12.5249H52.9505C53.5273 12.5249 54.0285 12.6195 54.454 12.8086ZM54.1136 15.8724C54.3878 15.6455 54.5249 15.3192 54.5249 14.8937C54.5249 14.4682 54.3878 14.1419 54.1136 13.915C53.8394 13.688 53.4327 13.5746 52.8937 13.5746H51.4469V16.2128H52.8937C53.4327 16.2128 53.8394 16.0994 54.1136 15.8724Z" fill="white"/>
<path d="M63.7313 12.6667V19.3192H62.4973V16.4682H59.0505V19.3192H57.8164V12.6667H59.0505V15.4185H62.4973V12.6667H63.7313Z" fill="white"/>
<path d="M71.8153 12.8086V19.4611H70.794L67.1203 14.9504V19.4611H65.9004V12.8086H66.9217L70.5812 17.3192V12.8086H71.8153Z" fill="white"/>
<path fill-rule="evenodd" clip-rule="evenodd" d="M79.0513 16.6099C79.2404 16.8747 79.335 17.1868 79.335 17.5461C79.335 17.9527 79.2215 18.3073 78.9945 18.6099C78.7676 18.9125 78.4508 19.1489 78.0442 19.3192C77.6281 19.4799 77.1506 19.5603 76.6116 19.5603C76.0631 19.5603 75.5856 19.4799 75.1789 19.3192C74.7629 19.1489 74.4461 18.9125 74.2286 18.6099C74.0111 18.3073 73.9023 17.9527 73.9023 17.5461C73.9023 17.1868 73.9922 16.8747 74.1718 16.6099C74.3515 16.3357 74.6163 16.1182 74.9662 15.9575C74.6919 15.8156 74.4839 15.6265 74.3421 15.3901C74.2002 15.1537 74.1293 14.8794 74.1293 14.5674C74.1293 14.1891 74.2333 13.8629 74.4413 13.5887C74.6494 13.305 74.9378 13.0875 75.3066 12.9362C75.6848 12.7849 76.1198 12.7092 76.6116 12.7092C77.1033 12.7092 77.5336 12.7849 77.9023 12.9362C78.2806 13.0875 78.5737 13.305 78.7818 13.5887C78.9898 13.8629 79.0938 14.1891 79.0938 14.5674C79.0938 14.8794 79.0229 15.1537 78.8811 15.3901C78.7298 15.617 78.517 15.8062 78.2428 15.9575C78.5926 16.1182 78.8622 16.3357 79.0513 16.6099ZM77.6896 18.2979C77.9544 18.1088 78.0867 17.8487 78.0867 17.5177C78.0867 17.1868 77.9544 16.9267 77.6896 16.7376C77.4248 16.5485 77.0655 16.4539 76.6116 16.4539C76.1482 16.4539 75.7889 16.5485 75.5335 16.7376C75.2688 16.9267 75.1364 17.1868 75.1364 17.5177C75.1364 17.8487 75.2688 18.1088 75.5335 18.2979C75.7889 18.487 76.1482 18.5816 76.6116 18.5816C77.0655 18.5816 77.4248 18.487 77.6896 18.2979ZM75.6896 13.9291C75.4626 14.0898 75.3492 14.3215 75.3492 14.6241C75.3492 14.9078 75.4626 15.1348 75.6896 15.305C75.9165 15.4752 76.2239 15.5603 76.6116 15.5603C76.9993 15.5603 77.3066 15.4752 77.5335 15.305C77.7605 15.1348 77.874 14.9078 77.874 14.6241C77.874 14.3215 77.7605 14.0898 77.5335 13.9291C77.2971 13.7683 76.9898 13.688 76.6116 13.688C76.2239 13.688 75.9165 13.7683 75.6896 13.9291Z" fill="white"/>
</svg>
