<svg width="80" height="32" viewBox="0 0 80 32" fill="none" xmlns="http://www.w3.org/2000/svg">
<path d="M10.6943 10.3686C10.6943 10.3686 10.4673 7.68779 11.3468 5.51758C11.3468 5.51758 13.7723 6.56723 15.3468 8.31191C15.3468 8.31191 13.0914 6.70907 11.829 6.34028C11.829 6.34028 11.0631 7.61687 10.6943 10.3686Z" fill="#FF7D08"/>
<path d="M19.9421 4.89362C19.6868 5.00709 19.4409 5.13475 19.2045 5.2766C18.7222 4.52482 18.1549 3.84397 17.5024 3.21986C16.9255 2.6714 16.3109 2.19385 15.6584 1.78724C15.0343 2.22222 14.4527 2.72813 13.9137 3.30496C13.2896 3.95745 12.7506 4.66667 12.2967 5.43262C11.8712 5.19149 11.5875 5.06383 11.5449 5.04965C12.0839 3.75887 12.8641 2.56738 13.857 1.51773C14.4054 0.950356 14.9917 0.444445 15.6158 0C16.2683 0.411348 16.8783 0.893618 17.4456 1.43263C18.5095 2.43972 19.3463 3.61702 19.9421 4.89362Z" fill="#FC0363"/>
<path d="M13.1061 11.6312C12.4252 11.4515 11.7302 11.3333 11.0209 11.2766C11.0209 11.2955 11.0209 11.3144 11.0209 11.3333C11.1628 12.3688 11.4323 13.3759 11.8153 14.3404C11.8342 14.3782 11.8484 14.4161 11.8578 14.4539C11.8389 14.4633 11.82 14.4728 11.8011 14.4823C11.7822 14.4444 11.7633 14.4066 11.7443 14.3688C11.6782 14.2269 11.6167 14.0804 11.56 13.9291C11.177 13.0213 10.9075 12.0567 10.7798 11.0638C10.7704 11.0449 10.7656 11.026 10.7656 11.0071C11.6167 11.0922 12.4536 11.2482 13.2479 11.5035C13.2006 11.5414 13.1533 11.5839 13.1061 11.6312Z" fill="#F90606"/>
<path d="M14.2111 11.8582C14.1922 11.8866 14.178 11.9197 14.1686 11.9575C14.1402 11.9433 14.126 11.9433 14.0977 11.9291C14.1166 11.9008 14.1308 11.8677 14.1402 11.8298C14.1686 11.8393 14.1922 11.8487 14.2111 11.8582Z" fill="#4EB709"/>
<path d="M21.2062 20.9788C20.0998 20.8937 19.0076 20.6384 17.9863 20.227C18.0052 20.1798 18.0242 20.1325 18.0431 20.0852C18.6388 20.2743 19.244 20.4162 19.8587 20.5107C20.1896 20.5675 20.5253 20.61 20.8658 20.6384C20.8563 20.5438 20.8421 20.454 20.8232 20.3689C20.6955 19.4611 20.4686 18.5817 20.1424 17.7164L20.2416 17.6597C20.6955 18.6384 21.0076 19.6597 21.1636 20.7093C21.1825 20.8039 21.1967 20.8937 21.2062 20.9788Z" fill="#0782D6"/>
<path d="M13.5752 20.5816C12.7903 20.8747 11.9818 21.0827 11.1497 21.2057C11.1024 21.2151 11.0551 21.2199 11.0078 21.2199C11.1071 20.1135 11.3624 19.0213 11.7596 18C11.8069 18.0189 11.8542 18.0331 11.9014 18.0426C11.892 18.0804 11.8825 18.1182 11.8731 18.156C11.8636 18.156 11.8589 18.1608 11.8589 18.1702C11.6177 19.0355 11.4475 19.9291 11.3624 20.8511C11.4097 20.8416 11.457 20.8322 11.5043 20.8227C12.1284 20.7376 12.743 20.6099 13.3482 20.4397C13.4239 20.4965 13.4995 20.5437 13.5752 20.5816Z" fill="#FFBE06"/>
<path d="M20.9781 10.7803C20.8788 11.9008 20.6235 12.993 20.2121 14.0285C20.1743 14.0096 20.1365 13.9954 20.0986 13.9859C20.3681 13.0781 20.5525 12.1278 20.6376 11.1633C20.6093 11.1633 20.5809 11.168 20.5525 11.1774C19.5596 11.3051 18.5951 11.5462 17.6731 11.8725C17.6447 11.8914 17.6116 11.9056 17.5738 11.915C17.5643 11.8772 17.5502 11.8394 17.5312 11.8016C17.5596 11.7826 17.5927 11.7685 17.6305 11.759C18.6518 11.2767 19.7582 10.9505 20.893 10.7803C20.9213 10.7803 20.9497 10.7803 20.9781 10.7803Z" fill="#721EF7"/>
<path d="M31.9867 15.6311C31.5801 16.2741 31.1073 16.884 30.5683 17.4608C29.6037 18.4537 28.5115 19.2623 27.3058 19.858C27.2207 19.65 27.1309 19.4467 27.0363 19.2481C27.8307 18.7516 28.5541 18.1417 29.2207 17.4608C29.7598 16.884 30.2326 16.2741 30.6392 15.6311C30.1995 14.9928 29.703 14.4112 29.1356 13.8722C28.3697 13.1488 27.5328 12.5389 26.625 12.0566C26.7668 11.7587 26.8378 11.5601 26.8378 11.5318L26.8519 11.5176C28.1853 12.0566 29.4051 12.8509 30.4831 13.8722C31.0505 14.4112 31.5517 14.9975 31.9867 15.6311Z" fill="#1C178E"/>
<path d="M20.4252 26.9786C19.8862 28.241 19.1203 29.4325 18.1274 30.4822C17.5884 31.0496 16.9926 31.5602 16.3685 31.9999C15.716 31.5838 15.1061 31.1063 14.5387 30.5673C13.56 29.6311 12.7657 28.5531 12.1699 27.3758C12.378 27.3001 12.5765 27.215 12.7657 27.1205C13.2338 27.8439 13.8011 28.5105 14.4394 29.1205C15.0068 29.6595 15.6167 30.1418 16.2692 30.5531C16.8933 30.1134 17.4891 29.6027 18.0281 29.0354C18.7373 28.2978 19.3189 27.4893 19.8011 26.624C20.1274 26.8226 20.3543 26.9361 20.4252 26.9786Z" fill="#4EB709"/>
<path d="M2.70922 18.1276C3.44681 18.8368 4.2695 19.4326 5.13475 19.9148C5.04964 20.1276 4.97872 20.2978 4.95035 20.3971C3.68794 19.8581 2.52482 19.0922 1.50354 18.1276C0.936167 17.5886 0.439716 17.007 0 16.3687C0.406619 15.7257 0.879433 15.1158 1.41844 14.539C2.36879 13.5461 3.46099 12.7517 4.65248 12.1702C4.73759 12.3404 4.83215 12.5059 4.93617 12.6666C4.09929 13.1773 3.33333 13.8156 2.62411 14.539C2.08511 15.1205 1.60284 15.7305 1.20567 16.3687C1.63121 17.007 2.14184 17.5886 2.70922 18.1276Z" fill="#FF7D08"/>
<path d="M20.3973 6.01418C20.3122 5.76831 20.2176 5.52718 20.1136 5.29077C19.8866 5.39479 19.6597 5.50827 19.4328 5.6312C18.3973 6.19858 17.4469 6.93616 16.6101 7.8156C16.4824 7.95744 16.3547 8.09929 16.2271 8.24113C16.2176 8.25059 16.2129 8.26004 16.2129 8.2695C16.2129 8.28368 16.2271 8.29787 16.2413 8.31205C16.2507 8.30259 16.2602 8.29314 16.2696 8.28368C17.3193 7.39006 18.4966 6.69503 19.759 6.22694C20.3973 7.43262 20.8086 8.75177 20.9788 10.1277C20.993 10.1277 21.0072 10.1277 21.0072 10.1277C21.0167 9.91961 21.0214 9.71631 21.0214 9.51772C20.993 8.29787 20.7803 7.12056 20.3973 6.01418Z" fill="#FFBE06"/>
<path d="M25.7312 11.1349C24.6957 10.8228 23.6035 10.681 22.5113 10.681C22.2939 10.6715 22.0811 10.6763 21.873 10.6952C23.1638 10.7803 24.4262 11.064 25.6035 11.5604C25.2064 12.9221 24.5539 14.1987 23.6745 15.3477C23.6839 15.3477 23.6934 15.3524 23.7028 15.3618C23.8447 15.22 23.9865 15.0782 24.1284 14.9363C25.0078 14.0143 25.717 12.9647 26.2277 11.8441C26.3033 11.6834 26.3742 11.5226 26.4404 11.3619C26.204 11.2767 25.9676 11.2011 25.7312 11.1349Z" fill="#F90606"/>
<path d="M26.6254 10.9078L26.5403 10.8794C26.3134 10.7943 26.0722 10.7234 25.8311 10.6667C26.0155 9.80143 26.0864 8.89362 26.0722 7.98582C26.0439 7.20095 25.9446 6.435 25.7744 5.68795C25.0226 5.54611 24.2424 5.48937 23.4623 5.51774C22.6112 5.54611 21.7602 5.65958 20.9517 5.85816C20.824 5.43263 20.7247 5.17731 20.7105 5.13476L20.668 5.04965C21.9304 4.53902 23.2921 4.25533 24.6822 4.21277C25.467 4.19386 26.2377 4.2506 26.9942 4.38298C27.1739 5.13003 27.2732 5.89599 27.2921 6.68086C27.3346 8.14185 27.0935 9.57448 26.6254 10.9078Z" fill="#721EF7"/>
<path d="M17.5743 11.6313C17.5365 11.6503 17.5034 11.6692 17.475 11.6881C17.0211 10.7803 16.4537 9.92921 15.7871 9.13488C15.2906 9.80155 14.8509 10.4966 14.4963 11.22C14.4585 11.22 14.4206 11.2153 14.3828 11.2058C14.7516 10.3547 15.2197 9.53205 15.8013 8.78027C16.5388 9.64552 17.1346 10.6101 17.5743 11.6313Z" fill="#FC0363"/>
<path d="M17.887 20.0428C17.8775 20.0806 17.8634 20.1232 17.8444 20.1704C17.7972 20.3028 17.7452 20.4305 17.6884 20.5534C17.3338 21.4328 16.8799 22.2697 16.3267 23.0215C16.2794 23.0877 16.2321 23.1492 16.1849 23.2059C15.5466 22.4541 15.0076 21.6172 14.582 20.7378C14.6388 20.7284 14.7002 20.7142 14.7664 20.6953C14.8988 20.9411 15.0454 21.187 15.2061 21.4328C15.2156 21.4328 15.2203 21.4376 15.2203 21.447C15.5135 21.8915 15.835 22.317 16.1849 22.7236C16.2321 22.6669 16.2794 22.6054 16.3267 22.5392C16.8799 21.7875 17.348 20.9789 17.7452 20.1279C17.7641 20.0901 17.783 20.0522 17.8019 20.0144C17.8303 20.0239 17.8586 20.0333 17.887 20.0428Z" fill="#4EB709"/>
<path d="M11.8715 17.7303C11.8999 17.7492 11.933 17.7681 11.9708 17.787C11.9613 17.8248 11.9519 17.8627 11.9424 17.9005C11.9046 17.8816 11.862 17.8674 11.8148 17.8579C11.7297 17.8296 11.6493 17.7965 11.5736 17.7587C11.5547 17.7587 11.5405 17.7539 11.5311 17.7445C10.5807 17.3757 9.67291 16.865 8.83603 16.2551C8.81712 16.2362 8.79821 16.2173 8.7793 16.1984C9.64455 15.4466 10.6233 14.8508 11.6587 14.4111C11.6776 14.449 11.6966 14.4868 11.7155 14.5246C10.8502 14.9927 10.0417 15.5459 9.28994 16.1842C9.3183 16.2031 9.34195 16.2173 9.36086 16.2267C10.141 16.8225 10.9779 17.3331 11.8715 17.7303Z" fill="#FF7D08"/>
<path d="M20.9371 17.1062C21.5518 16.7279 22.138 16.3024 22.696 15.8296C22.6771 15.8107 22.6534 15.7965 22.625 15.787C21.8307 15.1913 20.9938 14.6807 20.1144 14.2693C20.086 14.2599 20.0577 14.2457 20.0293 14.2268C20.0293 14.2268 20.0293 14.222 20.0293 14.2126C20.0388 14.1747 20.0482 14.1417 20.0577 14.1133C20.0577 14.1133 20.1428 14.1275 20.1711 14.1417C21.2208 14.5246 22.2279 15.0636 23.1357 15.7445C23.164 15.7729 23.1924 15.787 23.2066 15.8012C22.3555 16.5246 21.4052 17.1204 20.3981 17.5601C20.6109 17.4324 20.7953 17.2764 20.9371 17.1062Z" fill="#1C178E"/>
<path d="M26.4409 19.6027C25.9019 18.5814 25.2069 17.6452 24.37 16.8084C24.2424 16.6807 24.1147 16.553 23.9729 16.4396C23.9445 16.4207 23.9208 16.397 23.9019 16.3687C23.9208 16.397 23.9398 16.4254 23.9587 16.4538C24.8523 17.4609 25.5331 18.5956 26.0296 19.8155C24.7955 20.4396 23.448 20.8226 22.0438 20.9644C21.987 20.9739 21.9256 20.9833 21.8594 20.9928C21.8594 20.9928 21.8736 21.007 21.8736 21.0211C21.9303 21.0211 21.987 21.0211 22.0438 21.0211C22.1005 21.0211 22.1572 21.0259 22.214 21.0353C23.6041 21.0353 24.9516 20.78 26.214 20.3261C26.3747 20.2599 26.5402 20.1937 26.7104 20.1275C26.6253 19.9478 26.5355 19.7729 26.4409 19.6027Z" fill="#FC0363"/>
<path d="M21.2775 21.6455V21.6313C21.2586 21.6313 21.2349 21.6313 21.2066 21.6313V21.6455C21.1356 23.0356 20.8094 24.4115 20.242 25.7165C18.9512 25.2626 17.7314 24.5817 16.6534 23.6739C16.6392 23.6881 16.6392 23.6881 16.625 23.7023C16.7101 23.7732 16.781 23.8725 16.8661 23.9434C17.8023 24.8796 18.8803 25.6313 20.0293 26.1845C20.2184 26.2791 20.417 26.3689 20.625 26.454C20.6912 26.2649 20.7527 26.0805 20.8094 25.9009C21.2349 24.5108 21.391 23.0782 21.2775 21.6455Z" fill="#721EF7"/>
<path d="M27.6018 27.0073C26.8548 27.1775 26.0888 27.2721 25.304 27.291C23.8713 27.3336 22.4671 27.1066 21.1621 26.6527C21.2472 26.4541 21.3276 26.2556 21.4032 26.057C22.3536 26.2697 23.3465 26.369 24.3536 26.3407C25.1385 26.3217 25.9044 26.2272 26.6515 26.057C26.7791 25.3052 26.8359 24.5251 26.8217 23.7449C26.7933 22.8087 26.6515 21.9009 26.4103 21.0215C26.694 20.9506 26.9068 20.8938 27.0203 20.8655C27.4742 22.0712 27.7437 23.3619 27.772 24.6953C27.8004 25.4754 27.7437 26.2414 27.6018 27.0073Z" fill="#0782D6"/>
<path d="M6.18322 20.4115C6.58038 19.1491 7.19031 17.9718 7.99883 16.908C7.95154 16.9647 7.90426 17.0167 7.85698 17.064C6.96336 18.0002 6.25414 19.064 5.72932 20.2129C5.66313 20.3548 5.60166 20.4966 5.54492 20.6385C5.71513 20.6952 5.88535 20.7519 6.05556 20.8087C7.14776 21.1491 8.2967 21.3193 9.474 21.3193C9.66313 21.3193 9.85225 21.3146 10.0414 21.3051C8.69386 21.2342 7.38889 20.9221 6.18322 20.4115Z" fill="#0782D6"/>
<path d="M11.2761 26.9645C10.042 27.4609 8.7087 27.7446 7.30445 27.7872C6.5243 27.8013 5.74416 27.7446 4.99239 27.6169C4.82217 26.8652 4.72288 26.0992 4.69451 25.3191C4.65196 23.8864 4.87891 22.4964 5.33281 21.1914C5.53139 21.2576 5.72998 21.3143 5.92856 21.3616C5.71579 22.2836 5.6165 23.2481 5.64487 24.2127C5.67324 25.007 5.77253 25.773 5.94274 26.5247C6.69452 26.6524 7.47466 26.7091 8.2548 26.6808C9.23352 26.6666 10.1697 26.5106 11.0775 26.2552C11.1626 26.5673 11.2193 26.8084 11.2761 26.9645Z" fill="#FFBE06"/>
<path d="M15.7308 23.6596C15.6741 23.7069 15.6173 23.7589 15.5606 23.8156C14.5393 24.7092 13.362 25.4327 12.0712 25.9291C11.5038 24.7944 11.1351 23.5603 10.9648 22.2695C10.9648 22.3452 10.9648 22.4161 10.9648 22.4823C10.9932 23.7305 11.2202 24.9504 11.6315 26.0851C11.6977 26.2932 11.7734 26.5012 11.8585 26.7092C12.0287 26.6336 12.1942 26.5485 12.3549 26.4539C13.6031 25.8014 14.7095 24.9362 15.6315 23.8866C15.6788 23.8298 15.7261 23.7778 15.7734 23.7305C15.7544 23.7116 15.7403 23.688 15.7308 23.6596Z" fill="#1C178E"/>
<path d="M10.1142 11.0071C10.1142 10.9929 10.1142 10.9929 10.1142 10.9788C10.0386 10.9788 9.96292 10.9788 9.88727 10.9788C9.84945 10.9788 9.81163 10.9788 9.7738 10.9788C8.36954 10.9788 6.99366 11.2199 5.71706 11.7022C5.57522 11.7494 5.42864 11.8062 5.27734 11.8724C5.35299 12.0331 5.43337 12.1892 5.51848 12.3405C6.05749 13.3759 6.76671 14.3405 7.61777 15.1915C7.75961 15.3239 7.89673 15.4516 8.02912 15.5745C7.10713 14.5532 6.39791 13.3901 5.88728 12.1419C7.1355 11.532 8.48302 11.149 9.90146 11.0213C9.96765 11.0119 10.0386 11.0071 10.1142 11.0071Z" fill="#4EB709"/>
<path d="M10.8647 5.36163C10.7985 5.53185 10.737 5.71152 10.6803 5.90064C9.65898 5.64532 8.60933 5.51767 7.53132 5.56022C6.73699 5.5744 5.97104 5.67369 5.23345 5.84391C5.0916 6.59568 5.04905 7.37582 5.06323 8.15596C5.0916 9.17724 5.24763 10.1701 5.53132 11.1205C5.33274 11.2056 5.16252 11.2907 5.04905 11.3333C4.53841 10.0709 4.25472 8.70915 4.21217 7.3049C4.1838 6.52476 4.24054 5.7588 4.38238 4.99284C5.11997 4.82263 5.88593 4.72807 6.68025 4.70915C8.12706 4.6666 9.5455 4.89355 10.8647 5.36163Z" fill="#F90606"/>
<path d="M20.3284 15.2484L19.3639 14.6668L14.6688 11.8299C13.8745 11.3477 13.1227 11.7874 13.1369 12.7235L13.222 17.1774L13.2646 19.2625C13.2788 20.1987 13.9738 20.5959 14.7965 20.1278L20.3142 16.9789C21.1369 16.5108 21.1369 15.7164 20.3284 15.2484Z" fill="#FC0363"/>
<path d="M39.4891 12.2415V18.8939H38.2409V16.0429H34.8083V18.8939H33.5742V12.2415H34.8083V14.9932H38.2409V12.2415H39.4891Z" fill="white"/>
<path d="M45.0925 16.5393V18.8939H43.8585V16.5677L41.2344 12.2415H42.5677L44.511 15.4755L46.4826 12.2415H47.6883L45.0925 16.5393Z" fill="white"/>
<path fill-rule="evenodd" clip-rule="evenodd" d="M53.6025 12.5251C54.028 12.7143 54.3542 12.9885 54.5812 13.3478C54.8081 13.6977 54.9216 14.1185 54.9216 14.6103C54.9216 15.0925 54.8081 15.5133 54.5812 15.8727C54.3542 16.2225 54.028 16.4968 53.6025 16.6954C53.1769 16.8845 52.6757 16.979 52.0989 16.979H50.5954V18.8939H49.3613V12.2415H52.0989C52.6757 12.2415 53.1769 12.336 53.6025 12.5251ZM53.262 15.589C53.5363 15.362 53.6734 15.0358 53.6734 14.6103C53.6734 14.1847 53.5363 13.8585 53.262 13.6315C52.9878 13.4046 52.5812 13.2911 52.0422 13.2911H50.5954V15.9294H52.0422C52.5812 15.9294 52.9878 15.8159 53.262 15.589Z" fill="white"/>
<path d="M63.0204 12.2415V18.8939H61.7863V16.0429H58.3395V18.8939H57.1055V12.2415H58.3395V14.9932H61.7863V12.2415H63.0204Z" fill="white"/>
<path d="M71.6727 12.2415V18.8939H70.6514L66.9777 14.3833V18.8939H65.7578V12.2415H66.7791L70.4387 16.7521V12.2415H71.6727Z" fill="white"/>
<path fill-rule="evenodd" clip-rule="evenodd" d="M79.0493 16.0428C79.2385 16.3076 79.333 16.6196 79.333 16.979C79.333 17.3856 79.2195 17.7402 78.9926 18.0428C78.7656 18.3454 78.4489 18.5818 78.0422 18.752C77.6262 18.9128 77.1486 18.9932 76.6096 18.9932C76.0611 18.9932 75.5836 18.9128 75.177 18.752C74.7609 18.5818 74.4441 18.3454 74.2266 18.0428C74.0091 17.7402 73.9004 17.3856 73.9004 16.979C73.9004 16.6196 73.9902 16.3076 74.1699 16.0428C74.3496 15.7686 74.6143 15.5511 74.9642 15.3903C74.69 15.2485 74.4819 15.0593 74.3401 14.8229C74.1983 14.5865 74.1273 14.3123 74.1273 14.0002C74.1273 13.622 74.2314 13.2958 74.4394 13.0215C74.6474 12.7378 74.9358 12.5203 75.3046 12.369C75.6829 12.2177 76.1179 12.1421 76.6096 12.1421C77.1013 12.1421 77.5316 12.2177 77.9004 12.369C78.2786 12.5203 78.5718 12.7378 78.7798 13.0215C78.9879 13.2958 79.0919 13.622 79.0919 14.0002C79.0919 14.3123 79.021 14.5865 78.8791 14.8229C78.7278 15.0499 78.515 15.239 78.2408 15.3903C78.5907 15.5511 78.8602 15.7686 79.0493 16.0428ZM77.6876 17.7307C77.9524 17.5416 78.0848 17.2816 78.0848 16.9506C78.0848 16.6196 77.9524 16.3596 77.6876 16.1705C77.4229 15.9813 77.0635 15.8868 76.6096 15.8868C76.1463 15.8868 75.7869 15.9813 75.5316 16.1705C75.2668 16.3596 75.1344 16.6196 75.1344 16.9506C75.1344 17.2816 75.2668 17.5416 75.5316 17.7307C75.7869 17.9199 76.1463 18.0144 76.6096 18.0144C77.0635 18.0144 77.4229 17.9199 77.6876 17.7307ZM75.6876 13.3619C75.4607 13.5227 75.3472 13.7544 75.3472 14.057C75.3472 14.3407 75.4607 14.5676 75.6876 14.7378C75.9146 14.908 76.2219 14.9932 76.6096 14.9932C76.9973 14.9932 77.3046 14.908 77.5316 14.7378C77.7585 14.5676 77.872 14.3407 77.872 14.057C77.872 13.7544 77.7585 13.5227 77.5316 13.3619C77.2952 13.2012 76.9879 13.1208 76.6096 13.1208C76.2219 13.1208 75.9146 13.2012 75.6876 13.3619Z" fill="white"/>
</svg>
