<svg width="33" height="32" viewBox="0 0 33 32" fill="none" xmlns="http://www.w3.org/2000/svg">
<path fill-rule="evenodd" clip-rule="evenodd" d="M11.3262 23.5089C11.3241 23.466 11.3241 23.4208 11.3262 23.3779V13.3126C11.3262 12.8398 11.4444 12.3735 11.6657 11.9588C11.6786 11.9287 11.6937 11.9008 11.7109 11.8728C11.9537 11.4516 12.3082 11.0863 12.7595 10.8242C13.2151 10.5599 13.7115 10.4352 14.195 10.4352V10.4395C14.6656 10.4395 15.1319 10.5556 15.5487 10.7769C15.5788 10.7919 15.6068 10.807 15.6368 10.822L21.8664 14.4192C22.0856 14.5482 22.2854 14.7007 22.4638 14.8769C22.6378 15.051 22.7904 15.2487 22.9172 15.4679V15.4722C23.3147 16.1598 23.3964 16.942 23.2073 17.649C23.016 18.3581 22.5562 18.9963 21.8686 19.3939L13.6814 24.1214V29.081C13.6814 29.1175 13.6878 29.1626 13.7029 29.2142C13.7158 29.2593 13.7308 29.3001 13.7523 29.3367L13.7738 29.3732C13.8447 29.4742 13.95 29.5451 14.0682 29.5773C14.1971 29.6117 14.3389 29.5988 14.4614 29.5301L30.1202 20.4876C30.3394 20.3609 30.4877 20.1567 30.55 19.9289C30.6123 19.7012 30.5865 19.4497 30.4597 19.2327C30.4468 19.2112 30.4361 19.1897 30.4232 19.1661L24.9328 9.65734C24.6084 9.09434 24.8039 8.37447 25.3669 8.05214L26.0395 7.66534L8.18242 2.87981L3.39904 20.7326L4.06949 20.3458C4.63249 20.0192 5.35451 20.2126 5.67899 20.7756C5.69188 20.7971 5.70263 20.8186 5.71337 20.8422L8.53698 25.7352C8.86146 26.2982 8.66591 27.018 8.10291 27.3404C7.53991 27.6649 6.82004 27.4693 6.49771 26.9063L4.2285 22.976L2.15699 24.1729C1.88839 24.3449 1.54887 24.4072 1.21579 24.3191C0.586175 24.1515 0.212272 23.5046 0.379884 22.875L6.20546 1.13279C6.37307 0.503167 7.01988 0.129264 7.6495 0.296876L29.3917 6.12246V6.12675C29.6818 6.20411 29.944 6.39321 30.1073 6.67686C30.4318 7.23987 30.2362 7.95974 29.6732 8.28207L27.5566 9.50477L32.456 17.9928C32.4689 18.0121 32.4818 18.0336 32.4947 18.053C32.9481 18.8373 33.0405 19.7312 32.8235 20.5392C32.6064 21.3493 32.08 22.0756 31.2978 22.5291L15.639 31.5693H15.6347C14.9471 31.9669 14.1649 32.0485 13.4579 31.8594C12.7788 31.6768 12.1664 31.2449 11.7646 30.6024C11.7474 30.5766 11.7302 30.5486 11.713 30.5207C11.5819 30.2951 11.4874 30.0608 11.4229 29.8266C11.3584 29.5902 11.3284 29.3388 11.3284 29.0831V23.5089H11.3262ZM13.6792 21.4031L20.6845 17.3589C20.807 17.288 20.8908 17.1719 20.9252 17.0451C20.9596 16.9162 20.9467 16.7744 20.8779 16.6519C20.8521 16.6111 20.8242 16.5724 20.792 16.5423C20.7576 16.5079 20.7232 16.4821 20.691 16.4628H20.6867L14.4249 12.8463C14.354 12.8119 14.2766 12.7947 14.1971 12.7947V12.799C14.1068 12.799 14.0187 12.8205 13.9414 12.8656C13.8597 12.9129 13.7953 12.9795 13.7501 13.0547L13.7308 13.0869C13.6964 13.1578 13.6792 13.2352 13.6792 13.3147V21.4052V21.4031Z" fill="white"/>
</svg>
