<svg width="328" height="99" viewBox="0 0 328 99" fill="none" xmlns="http://www.w3.org/2000/svg">
<path fill-rule="evenodd" clip-rule="evenodd" d="M34.7361 72.6717C34.7295 72.5389 34.7295 72.3994 34.7361 72.2665V41.1523C34.7361 39.6909 35.1015 38.2495 35.7859 36.9674C35.8258 36.8744 35.8723 36.7881 35.9255 36.7017C36.6763 35.3998 37.7726 34.2705 39.168 33.4601C40.5766 32.6431 42.1115 32.2578 43.6065 32.2578V32.2711C45.0617 32.2711 46.5035 32.6298 47.7926 33.314C47.8856 33.3605 47.972 33.407 48.065 33.4535L67.3274 44.5733C68.0052 44.9718 68.6231 45.4435 69.1746 45.9882C69.7128 46.5262 70.1846 47.1373 70.5766 47.8149V47.8282C71.8059 49.9538 72.0583 52.3718 71.4736 54.5572C70.8823 56.7493 69.4603 58.7221 67.3341 59.951L42.0185 74.5649V89.8961C42.0185 90.0091 42.0384 90.1485 42.0849 90.308C42.1248 90.4475 42.1713 90.5737 42.2378 90.6866L42.3042 90.7995C42.5235 91.1117 42.8491 91.3309 43.2145 91.4306C43.6132 91.5369 44.0517 91.497 44.4305 91.2844L92.849 63.3321C93.5268 62.9402 93.9852 62.3092 94.1779 61.605C94.3706 60.9009 94.2909 60.1237 93.8989 59.4528C93.859 59.3864 93.8258 59.32 93.7859 59.2469L76.8092 29.8531C75.8058 28.1128 76.4105 25.8875 78.1514 24.8911L80.2311 23.6954L25.0152 8.90219L10.2245 64.0894L12.2976 62.8937C14.0384 61.884 16.271 62.4819 17.2743 64.2222C17.3142 64.2887 17.3474 64.3551 17.3806 64.4282L26.1115 79.5535C27.1148 81.2939 26.5102 83.5192 24.7693 84.5156C23.0285 85.5186 20.8026 84.9141 19.8059 83.1738L12.7893 71.0243L6.38395 74.7243C5.55339 75.2557 4.50356 75.4483 3.47366 75.176C1.52682 74.6579 0.370672 72.6584 0.888944 70.7121L18.9022 3.50171C19.4205 1.55541 21.4205 0.399591 23.3673 0.917718L90.5965 18.926V18.9392C91.4935 19.1784 92.3042 19.7629 92.8092 20.6398C93.8125 22.3801 93.2078 24.6054 91.467 25.6018L84.9221 29.3815L100.072 55.62C100.111 55.6798 100.151 55.7462 100.191 55.806C101.593 58.2306 101.879 60.9939 101.208 63.4916C100.537 65.9958 98.9088 68.2411 96.4902 69.6427L48.0716 97.5883H48.0584C45.9321 98.8172 43.5135 99.0696 41.3275 98.4851C39.2278 97.9205 37.3341 96.5853 36.0916 94.5991C36.0384 94.5194 35.9853 94.4331 35.9321 94.3467C35.5268 93.6492 35.2344 92.9252 35.0351 92.2011C34.8358 91.4704 34.7427 90.6932 34.7427 89.9028V72.6717H34.7361ZM42.0118 66.1619L63.673 53.6604C64.0517 53.4412 64.3108 53.0825 64.4171 52.6906C64.5235 52.292 64.4836 51.8536 64.271 51.475C64.1912 51.3488 64.1049 51.2292 64.0052 51.1362C63.8989 51.0299 63.7926 50.9502 63.6929 50.8904H63.6796L44.3175 39.7108C44.0982 39.6046 43.859 39.5514 43.6132 39.5514V39.5647C43.3341 39.5647 43.0617 39.6311 42.8225 39.7706C42.57 39.9168 42.3707 40.1227 42.2311 40.3552L42.1713 40.4548C42.065 40.674 42.0118 40.9132 42.0118 41.1589V66.1686V66.1619Z" fill="white"/>
<path fill-rule="evenodd" clip-rule="evenodd" d="M169.888 32.4232C169.888 34.404 169.418 36.2615 168.485 37.988C167.545 39.7222 166.08 41.1173 164.083 42.1732C162.086 43.2368 159.565 43.7609 156.528 43.7609H150.321V57.9735H142.897V20.9622H156.528C159.396 20.9622 161.832 21.4555 163.844 22.4497C165.856 23.4363 167.367 24.8005 168.377 26.5347C169.387 28.2689 169.888 30.2266 169.888 32.4232ZM156.204 37.7799C158.255 37.7799 159.773 37.3097 160.768 36.3771C161.755 35.4368 162.256 34.1265 162.256 32.4232C162.256 28.8161 160.244 27.0125 156.212 27.0125H150.321V37.7799H156.212H156.204Z" fill="white"/>
<path fill-rule="evenodd" clip-rule="evenodd" d="M170.074 43.1905C170.074 40.2232 170.667 37.5872 171.847 35.2904C173.034 32.9935 174.638 31.2285 176.673 29.9876C178.709 28.7467 180.975 28.1301 183.489 28.1301C185.678 28.1301 187.598 28.5695 189.24 29.4558C190.882 30.3422 192.2 31.452 193.195 32.7931V28.6003H200.673V57.9735H193.195V53.6804C192.239 55.0601 190.921 56.2008 189.24 57.1026C187.559 58.0043 185.624 58.4514 183.435 58.4514C180.96 58.4514 178.709 57.8116 176.673 56.5399C174.638 55.2682 173.034 53.4723 171.847 51.1601C170.66 48.8479 170.074 46.1811 170.074 43.1828V43.1905ZM193.203 43.2985C193.203 41.4949 192.848 39.9457 192.139 38.6586C191.429 37.3714 190.473 36.3771 189.271 35.6912C188.068 35.0052 186.781 34.6584 185.401 34.6584C184.02 34.6584 182.748 34.9975 181.584 35.668C180.42 36.3386 179.472 37.3174 178.747 38.6123C178.022 39.8994 177.66 41.4332 177.66 43.1983C177.66 44.9633 178.022 46.5125 178.747 47.8382C179.472 49.1638 180.428 50.1812 181.615 50.8903C182.802 51.5994 184.067 51.954 185.408 51.954C186.75 51.954 188.076 51.6071 189.278 50.9211C190.481 50.2352 191.437 49.2409 192.146 47.9538C192.856 46.6666 193.21 45.1174 193.21 43.3139L193.203 43.2985Z" fill="white"/>
<path fill-rule="evenodd" clip-rule="evenodd" d="M202.878 43.1904C202.878 40.223 203.472 37.5871 204.652 35.2903C205.839 32.9934 207.45 31.2284 209.501 29.9875C211.552 28.7466 213.834 28.13 216.339 28.13C218.251 28.13 220.071 28.5462 221.806 29.3786C223.54 30.211 224.92 31.3132 225.946 32.6928V18.75H233.478V57.9888H225.946V53.6418C225.028 55.0908 223.733 56.2546 222.075 57.141C220.41 58.0273 218.483 58.4667 216.293 58.4667C213.818 58.4667 211.552 57.827 209.501 56.5552C207.45 55.2835 205.831 53.4876 204.652 51.1754C203.464 48.8632 202.878 46.1964 202.878 43.1981V43.1904ZM226.007 43.2983C226.007 41.4948 225.653 39.9456 224.943 38.6584C224.234 37.3713 223.278 36.377 222.075 35.6911C220.873 35.0051 219.585 34.6583 218.205 34.6583C216.825 34.6583 215.553 34.9974 214.389 35.6679C213.225 36.3385 212.276 37.3173 211.552 38.6122C210.827 39.8993 210.465 41.4331 210.465 43.1981C210.465 44.9632 210.827 46.5124 211.552 47.838C212.276 49.1637 213.232 50.1811 214.412 50.8902C215.599 51.5993 216.864 51.9539 218.205 51.9539C219.547 51.9539 220.873 51.607 222.075 50.921C223.278 50.2351 224.234 49.2408 224.943 47.9537C225.653 46.6665 226.007 45.1173 226.007 43.3138V43.2983Z" fill="white"/>
<path fill-rule="evenodd" clip-rule="evenodd" d="M264.594 32.4232C264.594 34.404 264.124 36.2615 263.191 37.988C262.25 39.7222 260.785 41.1173 258.789 42.1732C256.792 43.2368 254.271 43.7609 251.233 43.7609H245.027V57.9735H237.603V20.9622H251.233C254.093 20.9622 256.537 21.4555 258.55 22.4497C260.562 23.4363 262.073 24.8005 263.083 26.5347C264.093 28.2689 264.594 30.2266 264.594 32.4232ZM250.909 37.7799C252.96 37.7799 254.479 37.3097 255.473 36.3771C256.46 35.4368 256.961 34.1265 256.961 32.4232C256.961 28.8161 254.949 27.0125 250.917 27.0125H245.027V37.7799H250.917H250.909Z" fill="white"/>
<path fill-rule="evenodd" clip-rule="evenodd" d="M279.735 58.4589C276.906 58.4589 274.362 57.8347 272.095 56.5783C269.828 55.322 268.055 53.5493 266.768 51.2525C265.48 48.9556 264.833 46.3043 264.833 43.2983C264.833 40.2924 265.496 37.641 266.822 35.3442C268.148 33.0474 269.959 31.2669 272.257 30.0183C274.554 28.762 277.122 28.1377 279.951 28.1377C282.781 28.1377 285.34 28.762 287.645 30.0183C289.943 31.2746 291.755 33.0474 293.081 35.3442C294.407 37.641 295.07 40.2924 295.07 43.2983C295.07 46.3043 294.391 48.9556 293.027 51.2525C291.662 53.5493 289.827 55.3297 287.514 56.5783C285.201 57.8347 282.611 58.4589 279.743 58.4589H279.735ZM279.735 51.9924C281.077 51.9924 282.341 51.6687 283.528 51.0135C284.716 50.3584 285.656 49.3795 286.366 48.0693C287.075 46.759 287.429 45.1713 287.429 43.2983C287.429 40.5082 286.697 38.3578 285.232 36.8549C283.767 35.3519 281.971 34.6043 279.851 34.6043C277.731 34.6043 275.95 35.3519 274.524 36.8549C273.09 38.3578 272.373 40.5082 272.373 43.2983C272.373 46.0884 273.074 48.2388 274.47 49.7418C275.865 51.2447 277.623 51.9924 279.751 51.9924H279.735Z" fill="white"/>
<path fill-rule="evenodd" clip-rule="evenodd" d="M304.792 32.8471C305.748 31.506 307.066 30.3807 308.747 29.4789C310.428 28.5772 312.348 28.1301 314.499 28.1301C317.012 28.1301 319.278 28.7467 321.314 29.9876C323.349 31.2285 324.953 32.9858 326.14 35.2672C327.327 37.5487 327.913 40.1923 327.913 43.1983C327.913 46.2042 327.32 48.8633 326.14 51.1755C324.953 53.4877 323.349 55.2836 321.314 56.5553C319.278 57.8271 317.012 58.4668 314.499 58.4668C312.34 58.4668 310.443 58.0275 308.793 57.1411C307.144 56.2547 305.817 55.1449 304.792 53.8038V71.9934H297.368V28.6157H304.792V32.8548V32.8471ZM320.335 43.1905C320.335 41.4255 319.972 39.8917 319.248 38.6046C318.523 37.3174 317.567 36.3309 316.38 35.6603C315.192 34.9898 313.913 34.6507 312.533 34.6507C311.153 34.6507 309.927 34.9975 308.739 35.6835C307.552 36.3694 306.604 37.3714 305.871 38.6817C305.147 39.9919 304.784 41.5257 304.784 43.2985C304.784 45.0712 305.147 46.605 305.871 47.9152C306.596 49.2255 307.552 50.2198 308.739 50.9135C309.927 51.5994 311.191 51.9463 312.533 51.9463C313.874 51.9463 315.192 51.5917 316.38 50.8826C317.567 50.1735 318.515 49.1715 319.248 47.8613C319.972 46.551 320.335 44.9941 320.335 43.1983V43.1905Z" fill="white"/>
<path fill-rule="evenodd" clip-rule="evenodd" d="M204.582 68.71V81.25H202.061V73.0955L198.7 81.25H196.795L193.419 73.0955V81.25H190.905V68.71H193.758L197.751 78.036L201.737 68.71H204.582Z" fill="white"/>
<path fill-rule="evenodd" clip-rule="evenodd" d="M218.135 70.7448V73.8894H222.351V75.8779H218.135V79.2076H222.89V81.2501H215.614V68.6946H222.89V70.7448H218.135Z" fill="white"/>
<path fill-rule="evenodd" clip-rule="evenodd" d="M238.119 68.71C239.437 68.71 240.594 68.9643 241.596 69.4807C242.598 69.9971 243.369 70.7293 243.916 71.685C244.464 72.6408 244.734 73.743 244.734 74.9993C244.734 76.2556 244.464 77.3578 243.916 78.2981C243.369 79.2384 242.598 79.9629 241.596 80.4793C240.594 80.9957 239.437 81.25 238.119 81.25H233.732V68.71H238.119ZM238.026 79.1151C239.345 79.1151 240.362 78.7528 241.079 78.036C241.796 77.3192 242.159 76.3018 242.159 74.9993C242.159 73.6967 241.796 72.6716 241.079 71.9394C240.362 71.1995 239.345 70.8372 238.026 70.8372H236.245V79.1228H238.026V79.1151Z" fill="white"/>
<path d="M257.685 68.71H255.173V81.25H257.685V68.71Z" fill="white"/>
<path fill-rule="evenodd" clip-rule="evenodd" d="M276.421 78.8606H271.425L270.6 81.25H267.956L272.466 68.6868H275.395L279.906 81.25H277.246L276.421 78.8606ZM275.735 76.849L273.923 71.6002L272.111 76.849H275.742H275.735Z" fill="white"/>
</svg>
