<svg width="151" height="26" viewBox="0 0 151 26" fill="none" xmlns="http://www.w3.org/2000/svg">
<path d="M65.3875 1.59244C65.7512 1.59598 66.0495 1.95 66.0671 2.39942C66.0734 2.48659 66.0644 2.57401 66.041 2.65594L66.0127 2.73564L58.2259 24.7774C58.1256 25.1967 57.8325 25.4954 57.488 25.5439L57.3832 25.5507H57.3289C56.9747 25.554 56.6576 25.2938 56.5191 24.8996L56.483 24.7774L48.7235 2.80658C48.6764 2.69128 48.6575 2.56145 48.6691 2.43306C48.6884 1.96452 48.9996 1.59585 49.3789 1.59244C49.6853 1.61116 49.9537 1.84163 50.0772 2.18138L50.1129 2.29852L57.3832 23.4138L64.6807 2.26488C64.7875 1.88718 65.0648 1.62333 65.3875 1.59244ZM82.9179 1.5927C84.213 1.59598 85.6442 1.63812 86.9833 2.18518C88.6717 2.8499 89.9651 4.27069 90.4436 5.98412C90.9034 7.62151 90.6411 9.59695 89.749 11.2647C89.0823 12.4994 88.0945 13.5896 86.6407 14.6837C85.5129 15.5307 84.3235 16.2468 83.0879 16.8226C84.622 18.2814 86.2549 19.8807 87.6686 21.2673C88.9465 22.5172 90.036 23.5999 90.6534 24.1545L90.6411 24.1469C90.8384 24.299 90.9495 24.5749 90.9283 24.8604C90.907 25.1458 90.757 25.3922 90.5404 25.4976C90.3237 25.6029 90.0774 25.5493 89.9033 25.3589C89.286 24.7928 88.1748 23.7025 86.8876 22.445C85.3474 20.933 83.4181 19.0449 81.6804 17.4076C80.0291 18.0424 78.3227 18.4338 76.5966 18.5739V24.7396C76.5966 25.1593 76.3202 25.4994 75.9793 25.4994L75.8955 25.4925C75.5941 25.4421 75.3619 25.1242 75.3619 24.7396V18.627C75.0717 18.6232 74.7815 18.5966 74.4976 18.5966C72.8123 18.4904 71.4109 17.2784 71.1022 15.6486C70.8491 14.3115 71.3955 13.0311 72.5653 12.2296C73.4415 11.704 74.4216 11.4984 75.3896 11.6369C75.3989 8.52939 75.4205 5.42567 75.4205 2.35231C75.4205 1.93259 75.6969 1.59244 76.0379 1.59244L82.9179 1.5927ZM138.321 0.550814C138.501 0.548825 138.673 0.636956 138.801 0.795434C138.906 0.927488 138.973 1.09916 138.991 1.2824L138.996 1.39351V23.6738C139.003 23.8678 138.947 24.0568 138.84 24.1977C138.754 24.3107 138.642 24.3851 138.522 24.412L138.43 24.4228H138.321C138.066 24.3821 137.835 24.2154 137.681 23.9631L137.619 23.8499L124.607 3.25117V23.6064C124.623 23.9216 124.498 24.2222 124.281 24.3862C124.065 24.55 123.793 24.55 123.577 24.3862C123.388 24.2428 123.268 23.9946 123.253 23.7237V23.6064V1.44966C123.259 1.00601 123.524 0.641524 123.868 0.581779L123.955 0.573312H124.172C124.424 0.588245 124.657 0.738058 124.814 0.980637L124.876 1.09015L137.646 21.3144V1.39351C137.645 1.16945 137.715 0.953899 137.842 0.795434C137.969 0.636956 138.142 0.548825 138.321 0.550814ZM149.771 0.550814C150.19 0.558222 150.534 0.88998 150.591 1.31996L150.6 1.42937V23.6305C150.6 23.9445 150.441 24.2345 150.185 24.3914C149.928 24.5483 149.612 24.5483 149.357 24.3914C149.132 24.2541 148.983 24.0149 148.949 23.7469L148.942 23.6305V1.42937C148.949 0.947526 149.316 0.558837 149.771 0.550814ZM9.74253 0.55101C10.1385 0.542111 10.4968 0.828717 10.6593 1.27127L10.6986 1.39574L18.7241 23.1598C18.7943 23.3256 18.8313 23.5102 18.8316 23.6979C18.8285 23.9169 18.7559 24.1254 18.6298 24.2774C18.5037 24.4295 18.3345 24.5127 18.1593 24.5088C17.8757 24.4813 17.6275 24.2697 17.5015 23.9577L17.4602 23.8361L15.2491 17.7711H4.12832L1.91727 23.8698C1.82943 24.2441 1.55688 24.5032 1.24497 24.5088C0.902892 24.5215 0.615759 24.189 0.599609 23.7614C0.602106 23.621 0.623403 23.4825 0.662364 23.3515L0.707167 23.2232L8.74754 1.39574C8.87154 0.932029 9.20065 0.60734 9.58321 0.557646L9.68866 0.55101H9.74253ZM35.4464 0.550814C35.8368 0.549204 36.1876 0.834986 36.3475 1.27206L36.3862 1.39495L44.4147 23.1603C44.4849 23.326 44.5218 23.5106 44.5221 23.6982C44.519 23.9178 44.4461 24.1268 44.3196 24.2789C44.193 24.4309 44.0232 24.5137 43.8479 24.509C43.5646 24.4813 43.3167 24.2697 43.191 23.9578L43.1498 23.8364L40.9211 17.7628H29.8137L27.6089 23.8588C27.5209 24.2342 27.2471 24.4936 26.9346 24.4976C26.5929 24.5103 26.3063 24.1778 26.2901 23.7504C26.2926 23.6101 26.3139 23.4718 26.3528 23.3408L26.3976 23.2126L34.4529 1.39495C34.5768 0.931467 34.9054 0.60692 35.2873 0.557397L35.3927 0.550814H35.4464ZM105.89 0.55084C106.28 0.549244 106.633 0.835155 106.792 1.27245L106.831 1.39548L114.857 23.1598C114.927 23.3254 114.963 23.5102 114.964 23.6978C114.961 23.9169 114.888 24.1254 114.762 24.2774C114.636 24.4295 114.467 24.5127 114.292 24.5088C114.008 24.4813 113.76 24.2697 113.634 23.9577L113.593 23.8361L111.381 17.7709H100.261L98.05 23.8698C97.962 24.2441 97.6895 24.5032 97.3777 24.5088C97.0348 24.5215 96.7479 24.189 96.7324 23.7614C96.7344 23.621 96.7562 23.4825 96.7945 23.3515L96.839 23.2232L104.892 1.39548C105.017 0.930473 105.347 0.605416 105.73 0.557057L105.836 0.55084H105.89ZM74.831 13.1186C74.2569 13.0921 73.6864 13.2409 73.1703 13.5516C72.4882 14.0189 72.1826 14.642 72.306 15.3106C72.4604 16.1312 73.2938 17.0049 74.5809 17.0884C74.8464 17.1151 75.1149 17.1151 75.3866 17.1151V14.3153C75.3866 13.924 75.3896 13.5364 75.3958 13.1489C75.2075 13.1186 75.0162 13.1186 74.831 13.1186ZM76.6212 13.4338V17.0643L77.1695 17.0086C78.0973 16.8977 79.0179 16.709 79.9248 16.4437L80.4672 16.2755C79.5525 15.3924 78.5881 14.5901 77.5812 13.8745C77.2725 13.6927 76.9513 13.5452 76.6212 13.4338ZM9.70068 2.54679L4.72283 16.1829L14.6575 16.1903L9.70068 2.54679ZM105.836 2.54666L100.855 16.1828L110.79 16.1902L105.836 2.54666ZM35.4045 2.54666L30.4193 16.1754L40.3543 16.1829L35.4045 2.54666ZM82.6064 3.10066H76.6583C76.6491 6.00689 76.6335 8.9321 76.6335 11.8611C77.1505 12.0076 77.6526 12.2242 78.1306 12.507L78.1214 12.5146C78.8684 12.9628 80.2851 14.2013 81.9397 15.7209C83.362 15.1257 84.7272 14.3409 86.011 13.3807C87.3043 12.4082 88.1686 11.4622 88.7335 10.406C89.4187 9.11061 89.6286 7.64807 89.2921 6.45134C88.9402 5.1863 87.9402 4.11874 86.6191 3.59838C85.3504 3.10066 83.9552 3.10066 82.6064 3.10066Z" fill="white"/>
</svg>
