<svg width="150" height="90" viewBox="0 0 150 90" fill="none" xmlns="http://www.w3.org/2000/svg">
<path fill-rule="evenodd" clip-rule="evenodd" d="M46.871 76.1236H49.1973V60.126C50.3597 63.2395 56.0563 67.3193 56.0563 67.3193C56.0563 67.3193 60.474 70.7553 62.5672 75.4793L63.9621 76.1236V52.825H61.6376V69.1446C60.3584 66.0311 55.359 62.3805 55.359 62.3805C51.5223 59.267 48.9641 54.9721 48.3832 52.9322L46.871 52.503V76.1236ZM72.2173 52.825H75.473V76.1236H72.2173V52.825ZM70.7063 45.9537C70.7063 44.2356 72.1006 42.947 73.9608 42.947C75.5887 42.947 77.1009 44.2356 77.1009 45.9537C77.1009 47.5637 75.5887 48.9598 73.9608 48.9598C72.1006 48.9598 70.7063 47.5637 70.7063 45.9537ZM98.4932 58.1935C97.6793 58.4081 96.8653 58.0862 96.0514 57.4419C94.8888 56.4754 94.4247 55.5092 92.9123 54.6503C91.2844 53.8986 88.9598 53.7912 87.5645 54.7575C86.2857 55.6165 86.2857 57.549 87.6806 58.6227C90.3548 60.5554 93.2609 61.6288 96.6336 63.2395C102.795 66.2456 103.842 71.507 99.5395 74.1911C95.9357 76.4456 91.4007 76.6602 87.332 75.2648C84.1925 74.0838 81.7506 71.7215 81.402 68.8226C83.4952 68.8226 84.1924 69.6817 85.0064 70.8625C86.2857 72.4732 87.0996 73.1175 88.9598 73.8686C91.6336 74.8354 94.6564 74.5131 96.401 73.5468C98.9585 72.0439 98.6099 69.5743 96.7496 67.9636C92.9123 64.6355 88.1459 63.6692 85.4717 61.1996C83.1466 59.0524 82.3326 56.6902 84.7747 54.2204C86.8666 52.1805 92.4476 51.5368 95.7027 54.1132C97.0977 55.2946 98.1446 56.6902 98.4932 58.1935ZM107.911 75.4793H111.283V69.1446H120.468V75.8019H123.956V52.825H120.468V67.3193H111.283V52.825H107.911V75.4793ZM0.13299 54.3283C-0.332318 53.4693 0.364945 51.2143 3.1558 51.4289H16.8745C18.6191 51.5368 19.665 50.3552 21.8739 50.57C18.7348 52.9322 18.3868 54.1132 17.8052 56.3682L15.5963 73.0103C15.0149 79.7742 17.1069 85.3573 22.5722 89.9742C19.2007 90.4035 11.8752 85.4647 11.6429 76.4456C11.4099 71.9361 12.8058 57.549 12.8058 57.549C13.1545 55.1868 14.7824 53.4693 14.7824 53.4693H1.75987C0.946937 53.5766 0.481623 53.5766 0.13299 54.3283ZM140.465 74.7277C137.792 72.6878 136.164 70.9699 134.536 67.6418C132.908 64.6355 132.792 61.0923 133.489 58.6227C134.303 55.9385 136.279 54.0058 138.14 52.6104C140.233 54.0058 142.442 55.7237 144.069 58.1935C146.743 62.3805 146.743 65.3868 145 69.4671C143.953 71.8287 142.791 73.2249 140.465 74.7277ZM139.07 49.9261C135.698 52.3953 132.908 54.5429 131.397 57.7636C129.769 60.9851 129.304 65.6019 131.397 69.5743C133.722 73.9766 136.396 76.3384 139.535 79.2371C141.744 81.4921 145.929 86.0018 144.535 89.9742C145.581 89.9742 146.976 87.612 147.209 86.7529C147.79 83.9614 147.442 82.5658 146.162 80.5259C145.348 79.1299 143.605 77.7344 142.325 76.3384C144.186 74.9428 146.162 72.9024 147.79 70.8625C149.883 68.1783 151.161 63.6692 148.488 59.267C146.046 55.0795 139.187 51.2143 139.07 49.9261ZM27.2229 69.1446H36.9886V58.9446C34.5467 63.1321 28.7335 65.3868 27.2229 69.1446ZM26.0603 76.1236C25.1297 73.9766 25.8273 71.6142 26.4089 70.7553H36.9886V76.1236H39.6633V52.3953C39.6633 52.3953 38.8488 52.288 38.2678 53.147C34.315 58.9446 31.2922 60.448 26.8742 64.5277C23.1531 67.9636 20.3627 71.8287 21.7576 76.1236H26.0603ZM97.3306 8.6966C98.1446 5.15376 95.7027 1.93249 91.866 1.93249H81.402C78.7284 2.03984 75.1246 0 75.1246 0V16.2128C75.1246 32.6397 84.8907 39.6188 89.4241 40.2627C90.2381 40.5852 90.8197 40.3705 89.7738 39.6188C83.6108 35.9683 80.0071 27.2712 79.6584 19.8628V5.04657C80.9377 5.79768 83.3785 5.90505 83.3785 5.90505H92.6799C95.1217 5.90505 96.401 6.65673 97.3306 8.6966ZM50.4754 8.6966C49.6614 5.15376 52.2201 1.93249 55.94 1.93249H66.4046C69.1944 2.03984 72.6826 0 72.6826 0V16.2128C72.6826 32.6397 62.9158 39.6188 58.3818 40.2627C57.5679 40.5852 56.9869 40.3705 58.0334 39.6188C64.1951 35.9683 67.7995 27.2712 68.1475 19.8628V5.04657C66.8695 5.79768 64.4275 5.90505 64.4275 5.90505H55.2423C52.8011 5.90505 51.5223 6.65673 50.4754 8.6966Z" fill="white"/>
</svg>
