<svg width="150" height="80" viewBox="0 0 150 80" fill="none" xmlns="http://www.w3.org/2000/svg">
<path fill-rule="evenodd" clip-rule="evenodd" d="M114.92 10.2928C114.993 9.23582 115.44 6.15729 117.813 8.33827C120.187 10.5192 120.087 9.99916 121.064 10.687C122.041 11.3749 121.092 14.6883 120.941 15.1916C120.796 15.7032 120.729 16.3827 120.438 18.8069C120.154 21.2228 118.992 20.4259 118.467 20.2162C117.936 19.9897 116.233 18.312 114.948 17.7919C113.658 17.2803 114.278 15.4768 114.512 13.9669C114.898 11.5762 114.859 11.3329 114.92 10.2928ZM56.7616 9.82301C57.0576 7.60848 57.348 7.60009 58.9733 8.46409C59.3755 8.6738 60.0066 8.92545 60.8779 9.05967C61.7436 9.20227 63.3521 9.94883 63.1678 11.9285C62.9667 14.1262 62.855 16.1478 61.9223 17.6493C61.4029 18.4882 60.6098 18.4798 59.9396 18.505C59.3866 18.5301 58.4148 18.8153 57.8898 17.8339C57.5324 17.188 56.8677 16.6344 56.3818 16.0304C55.8959 15.418 55.7339 12.8428 56.069 12.0711C56.3371 11.442 56.6443 10.8967 56.7616 9.82301ZM1.80889 31.6243C3.32247 31.7753 5.14883 29.4014 5.82464 27.8244C7.06455 24.9137 2.56847 10.4018 11.9739 0.830687C12.5548 0.243502 12.929 -0.0920322 14.0851 1.2501C15.5205 2.91939 18.1121 4.90743 19.4246 6.45089C20.5081 7.71753 20.1507 8.3131 19.3687 8.77446C19.0057 8.97578 11.8287 14.6715 13.5992 23.84C13.8282 25.0227 14.7386 25.7357 15.2524 25.5008C15.7663 25.2827 18.0115 24.7627 18.4248 25.2324C19.1342 26.1048 19.6983 27.405 20.5193 27.8076C20.5193 27.8076 21.0778 27.7909 21.4073 27.254C22.4685 25.5176 25.7526 22.3133 27.4673 22.6236C28.6011 22.8166 29.5617 25.5763 29.9583 25.7022C30.3548 25.8196 31.187 25.0059 31.8293 24.8633C32.7509 24.662 34.3538 28.4703 35.2251 29.8628C35.6272 30.5087 35.3368 31.8089 35.0966 32.3625C34.8621 32.9413 32.7788 38.2092 32.7173 41.4136C32.6503 44.6347 36.0014 48.594 37.2581 43.2422C38.3528 37.3871 39.09 1.84568 39.2744 1.01523C39.4922 0.0841234 39.872 0.0254048 40.464 0.000239771C41.2683 -0.0333137 45.4181 3.46463 45.904 4.25314C46.4234 5.09197 46.6412 6.17407 46.5128 7.04646C46.2614 8.87512 44.8596 17.0622 44.9042 20.4259C44.9377 23.0263 45.3287 24.402 46.1553 23.7057C46.1553 23.7057 48.4843 21.1976 50.5006 23.6219C50.9977 24.0832 51.3328 25.4925 52.3102 26.6668C53.2764 27.8412 54.9073 25.8196 55.0637 25.8196C55.2145 25.8196 54.8235 21.8435 55.6557 21.1473C56.4823 20.4678 61.8832 24.5026 62.263 25.4589C63.0114 27.3798 62.2295 28.0341 62.7769 29.8292C63.3242 31.6076 67.703 28.3781 68.1666 26.7843C69.211 23.0682 68.7195 21.0802 70.0544 21.1053C70.8251 21.1137 74.1762 23.0263 74.8967 23.9993C75.7792 25.1905 75.0754 31.0875 75.4943 32.1948C76.1031 33.8137 80.454 29.0827 81.3867 25.0311C82.0904 21.9861 83.3695 20.8956 83.9782 20.8789C84.587 20.8621 84.7546 21.2983 85.6203 21.6422C86.4972 21.9861 89.1725 23.5128 89.4294 25.2576C89.7757 27.6231 89.3624 28.2019 89.0105 31.2553C88.6531 34.3086 88.5134 41.4639 88.5246 44.5089C88.5358 45.7839 88.9379 46.6731 89.798 46.6898C91.0156 46.7066 91.1217 44.3998 91.0882 43.1919C90.9821 39.8198 92.4789 23.4709 99.5218 22.0952C100.834 21.8435 101.566 24.0245 102.705 23.1857C103.644 22.4978 103.627 6.34184 103.599 2.75162C103.593 2.047 103.934 1.04878 104.649 1.34238C105.325 1.62758 105.018 1.30882 105.989 2.34059C106.967 3.36397 108.291 3.6324 109.726 4.57189C110.335 4.79838 110.441 6.0818 110.352 6.79481C109.318 13.8662 109.251 34.1912 109.056 46.2453C109.329 47.168 109.866 47.6126 110.212 47.47C112.345 46.5808 112.167 45.2219 112.357 42.4369C112.468 40.7928 113.189 26.4152 113.217 25.5596C113.245 24.7123 113.814 22.372 115.015 22.7243C116.696 23.2108 119.947 25.4086 120.031 25.6015C120.12 25.8028 120.578 26.4068 120.293 28.3193C120.008 30.2403 119.07 43.7959 120.288 46.0859C121.109 47.6209 121.444 48.183 122.013 48.1326C122.661 48.0571 124.678 46.3291 124.638 44.9283C124.611 43.8042 123.415 40.7006 123.253 40.3399C122.907 39.5513 122.734 37.773 124.041 36.3973C125.136 34.3673 130.397 27.6315 131.547 25.6351C131.91 25.0647 132.77 23.2863 134.061 24.8046C135.356 26.3481 142.148 33.1594 141.98 33.3272C141.813 33.4782 143.209 34.0989 142.165 36.2547C141.165 38.3183 140.383 42.7138 140.93 44.1733C141.478 45.6329 144.835 44.3914 145.929 43.3932C146.599 42.7725 149.509 38.8383 149.599 38.788C149.884 38.6202 149.722 39.09 149.995 39.5597C149.498 41.1032 148.906 44.3747 147.515 47.0086C146.862 49.2986 148.409 47.9481 148.141 49.0637C147.873 50.1878 144.399 55.6402 141.372 55.2544C139.735 55.0446 139.339 52.5449 138.4 50.6156C137.909 49.6006 137.82 49.6174 137.093 50.1458C136.362 50.6743 133.625 53.9206 132.899 54.3652C132.167 54.8098 131.754 55.397 130.648 54.6252C129.548 53.8535 127.85 50.6408 127.353 51.4041C126.75 52.3268 124.197 54.5749 123.197 55.3131C122.192 56.0429 121.287 56.4455 120.427 55.3466C119.461 54.1051 117.495 51.5215 115.334 53.065C113.211 54.7678 111.396 56.37 110.089 56.7475C109.061 57.0411 108.369 56.2358 108.229 56.1435L105.185 53.9877C105.029 53.8703 103.979 53.3837 103.242 53.6102C101.661 54.1219 99.008 57.2088 96.8298 57.0578C95.7016 56.9656 92.1661 53.9206 91.7472 53.1069C91.3339 52.3016 90.3677 52.1003 89.9488 52.5701C88.9993 53.6522 87.1618 55.1285 86.8379 55.3131C86.5139 55.5144 85.6817 56.4791 84.2798 55.053C82.8891 53.6354 81.8224 53.1153 81.7888 52.9979C81.7553 52.8721 80.8114 52.6204 80.8505 49.9613C80.8896 47.2938 80.5434 44.4585 80.5154 43.9049C80.4931 43.3513 80.1356 41.8162 79.1973 42.504C78.0691 43.3261 75.4217 45.9265 74.7403 47.8307C74.0534 49.7264 74.1874 49.3322 73.7294 51.1189C73.277 52.914 73.2379 53.2915 73.0983 53.887C72.8637 54.8853 71.7411 55.4389 71.1826 54.9775C69.5293 53.6354 68.2894 52.1339 67.0886 50.7414C66.0163 49.5083 66.0498 48.334 66.2341 46.5724C66.5133 43.9804 66.8764 38.9306 66.9266 38.0331C66.9881 37.1355 67.3846 35.4662 65.9381 36.3302C64.5027 37.1858 64.0447 37.6724 63.1678 38.5615C62.5199 39.2242 62.0619 39.3836 61.9502 41.8833C61.833 44.383 61.4308 50.2884 61.2409 52.2094C61.1516 53.1405 60.3138 55.1705 59.0515 54.6252C57.7669 54.08 56.7504 53.367 55.7395 52.4359C54.7342 51.4964 54.3041 51.3118 54.5275 48.8037C54.7453 46.2956 55.2759 38.3602 55.315 37.06C55.3485 35.7598 55.4993 33.3188 54.6895 33.6124C54.0249 33.8556 53.9243 33.9311 53.282 34.8623C52.9693 35.3068 52.556 50.7834 44.7925 55.1621C42.6255 56.3868 39.7882 51.3538 38.4757 51.8235C37.5262 52.159 36.6046 53.2915 35.3089 54.5833C33.5216 56.3784 31.9466 53.6773 30.9803 52.6623C30.0253 51.6557 29.3774 51.5383 28.5005 52.3855C26.9199 53.8954 26.3837 54.9943 25.7247 55.5479C25.0433 56.1184 23.0103 56.068 22.3177 55.4221C19.944 53.3586 16.6096 48.6611 16.308 48.3088C16.0064 47.9565 15.4703 46.6227 15.716 45.0122C16.0567 42.7809 16.5594 40.1553 16.5985 39.3081C16.6487 38.3602 16.5761 37.6724 16.2801 37.5298C13.8673 36.3805 13.5266 38.3938 13.4987 40.0211C13.454 42.9822 13.4764 59.8512 13.2138 62.7787C12.9793 65.3288 12.5325 68.6589 11.259 71.2342C9.98561 73.8094 8.52787 75.1012 7.36057 75.9233C6.43901 76.5776 6.04805 76.1581 5.57331 75.6968C4.33339 74.4972 2.41209 71.7878 1.49053 70.5547C1.06605 69.9843 0.920839 69.3636 1.56872 68.5835C5.80788 63.5504 6.87466 62.0405 6.76854 53.518C6.668 45.5071 6.75178 44.1566 6.65683 42.504C6.5563 40.8599 4.42834 41.6233 3.77487 41.2206C3.14933 40.8432 3.08789 40.6083 2.41209 38.5028C1.40675 37.1858 0.758869 36.1373 0.183594 34.2247C-0.536896 31.8173 1.04371 31.5405 1.80889 31.6243Z" fill="white"/>
<path d="M28.2267 73.0799C27.9809 72.7359 27.7128 72.4843 27.4336 72.3165C27.1543 72.1404 26.8583 72.0565 26.5511 72.0565C25.9591 72.0565 25.4732 72.3585 25.0989 72.9708C24.7247 73.5832 24.5404 74.3717 24.5404 75.3447C24.5404 76.2758 24.7191 77.0476 25.0822 77.6599C25.4452 78.2723 25.9088 78.5742 26.4617 78.5742C26.7857 78.5742 27.0873 78.482 27.3833 78.3058C27.6737 78.1213 27.953 77.8444 28.2211 77.4754V79.0775C27.9809 79.346 27.724 79.5557 27.4447 79.6899C27.1599 79.8241 26.8583 79.8912 26.5288 79.8912C26.1154 79.8912 25.7301 79.7822 25.3726 79.5641C25.0208 79.346 24.708 79.0272 24.4399 78.5994C24.1774 78.18 23.9707 77.6935 23.8311 77.1314C23.6859 76.5694 23.6133 75.9655 23.6133 75.3279C23.6133 74.6904 23.6859 74.0948 23.8311 73.5328C23.9707 72.9708 24.1774 72.4843 24.4511 72.0565C24.7191 71.6287 25.0319 71.3015 25.3782 71.0834C25.7301 70.8653 26.1099 70.7563 26.5176 70.7563C26.8359 70.7563 27.1431 70.8318 27.4336 70.9828C27.724 71.1254 28.0032 71.3519 28.2769 71.6538L28.2267 73.0799ZM33.1305 79.6563V70.966H36.1744V72.1655H34.0129V74.3465H36.1744V75.588H34.0129V78.3897H36.1744V79.6563H33.1305ZM40.9888 79.6563V70.966H41.8769V78.3897H43.8596V79.6563H40.9888ZM48.378 79.6563V70.966H51.4275V72.1655H49.2661V74.3465H51.4275V75.588H49.2661V78.3897H51.4275V79.6563H48.378ZM57.1133 74.6317H57.4484C57.8729 74.6317 58.1689 74.5478 58.3476 74.3633C58.5207 74.1787 58.6045 73.8684 58.6045 73.4322C58.6045 72.954 58.5263 72.6269 58.3644 72.434C58.2024 72.241 57.9008 72.1404 57.4484 72.1404H57.1133V74.6317ZM57.1133 78.482H57.4149C57.7276 78.482 57.9622 78.4568 58.113 78.4232C58.2694 78.3813 58.3867 78.3058 58.4816 78.2135C58.5878 78.0961 58.6715 77.9367 58.733 77.7522C58.7944 77.5509 58.8223 77.3411 58.8223 77.1063C58.8223 76.8295 58.7832 76.5862 58.7106 76.3849C58.638 76.1752 58.5375 76.0158 58.4035 75.8983C58.3197 75.8312 58.2247 75.7809 58.113 75.7557C58.0069 75.7222 57.8617 75.7054 57.683 75.7054H57.4149H57.1133V78.482ZM56.242 79.6563V70.966H57.6159C58.0125 70.966 58.3029 70.9995 58.4872 71.0667C58.6771 71.1338 58.8335 71.2428 58.9676 71.3938C59.1351 71.5951 59.2692 71.8552 59.3585 72.1739C59.4535 72.5011 59.4982 72.8534 59.4982 73.2392C59.4982 73.7006 59.4311 74.0865 59.2971 74.3968C59.163 74.7156 58.9676 74.9253 58.7162 75.0511C59.0346 75.1266 59.2803 75.3615 59.4646 75.7474C59.6434 76.1248 59.7383 76.6114 59.7383 77.1902C59.7383 77.5425 59.6992 77.878 59.621 78.1884C59.5428 78.5071 59.4367 78.7756 59.2915 79.002C59.1463 79.2369 58.962 79.4131 58.7386 79.5137C58.5152 79.606 58.1465 79.6563 57.6271 79.6563H56.242ZM65.3235 74.6736H65.4855C65.9546 74.6736 66.2674 74.5814 66.4182 74.4136C66.5746 74.2375 66.6528 73.9271 66.6528 73.4825C66.6528 73.0044 66.569 72.6688 66.4014 72.4759C66.2395 72.2746 65.9323 72.1823 65.4855 72.1823H65.3235V74.6736ZM65.2732 75.7641V79.6563H64.441V70.966H65.6754C66.0384 70.966 66.3177 70.9995 66.5187 71.075C66.7198 71.1505 66.8874 71.2764 67.0326 71.4525C67.2001 71.6622 67.3286 71.9307 67.4235 72.2662C67.5129 72.5933 67.5576 72.9624 67.5576 73.3567C67.5576 74.0529 67.4571 74.5982 67.2448 74.9924C67.0326 75.3867 66.7198 75.6215 66.3065 75.7054L68.1887 79.6563H67.189L65.3682 75.7641H65.2732ZM73.6678 76.2423H75.187L74.6284 74.2542C74.5949 74.1284 74.5614 73.9858 74.5279 73.8264C74.4944 73.6587 74.4553 73.4741 74.4218 73.2728C74.3939 73.4657 74.3604 73.6419 74.3268 73.8013C74.2933 73.969 74.2598 74.12 74.2263 74.2542L73.6678 76.2423ZM76.1197 79.6563L75.4997 77.4166H73.3383L72.7015 79.6563H71.7744L74.4162 70.6221L77.0524 79.6563H76.1197ZM82.7102 72.1655V79.6563H81.8278V72.1655H80.3756V70.966H84.1568V72.1655H82.7102ZM88.6361 79.6563V70.966H91.68V72.1655H89.5186V74.3465H91.68V75.588H89.5186V78.3897H91.68V79.6563H88.6361ZM101.923 79.6563V70.966H102.806V79.6563H101.923ZM107.883 79.6563V70.6221L111.351 75.9319C111.446 76.0829 111.541 76.2423 111.642 76.4184C111.736 76.5862 111.837 76.7791 111.943 76.9888V70.966H112.759V80.0003L109.229 74.5898C109.134 74.4388 109.039 74.2878 108.955 74.12C108.866 73.9606 108.782 73.7929 108.704 73.6083V79.6563H107.883ZM118.701 78.3813H119.444C119.857 78.3813 120.165 78.3394 120.366 78.2471C120.572 78.1632 120.751 78.0122 120.902 77.8109C121.108 77.5257 121.265 77.1818 121.365 76.7623C121.471 76.3429 121.522 75.8564 121.522 75.3028C121.522 74.7491 121.471 74.2626 121.365 73.8432C121.265 73.4238 121.108 73.0799 120.902 72.7947C120.751 72.5933 120.567 72.4423 120.349 72.3585C120.137 72.2662 119.796 72.2242 119.338 72.2242H119.02H118.701V78.3813ZM117.813 79.6563V70.966H119.008C119.785 70.966 120.332 71.0247 120.65 71.1505C120.969 71.2764 121.248 71.4861 121.483 71.7713C121.801 72.1571 122.041 72.6521 122.203 73.256C122.365 73.86 122.449 74.5478 122.449 75.3195C122.449 76.0913 122.365 76.7707 122.203 77.3663C122.041 77.9619 121.801 78.4568 121.483 78.8427C121.248 79.1363 120.974 79.346 120.667 79.4718C120.366 79.5976 119.891 79.6563 119.249 79.6563H119.008H117.813ZM127.28 79.6563V70.966H128.163V79.6563H127.28ZM134.39 76.2423H135.915L135.356 74.2542C135.323 74.1284 135.289 73.9858 135.256 73.8264C135.217 73.6587 135.183 73.4741 135.15 73.2728C135.122 73.4657 135.088 73.6419 135.055 73.8013C135.021 73.969 134.988 74.12 134.954 74.2542L134.39 76.2423ZM136.842 79.6563L136.228 77.4166H134.066L133.429 79.6563H132.502L135.144 70.6221L137.78 79.6563H136.842Z" fill="white"/>
</svg>
