<svg width="150" height="25" viewBox="0 0 150 25" fill="none" xmlns="http://www.w3.org/2000/svg">
<path d="M110.387 0.240326C112.121 0.167227 113.854 0.122717 115.589 0.0833706C116.08 0.0623288 116.571 0.041287 117.076 0.0196076C120.713 -0.042376 120.713 -0.042376 122.495 1.37089C123.623 3.31757 123.771 4.64865 123.74 7.14635C122.834 9.19971 122.052 10.1982 120.624 11.5411C120.9 11.9037 121.175 12.2662 121.459 12.6398C123.068 15.0428 123.425 17.076 123.74 20.3306C124.474 20.3306 125.209 20.3306 125.965 20.3306C126.244 21.8217 126.244 21.8217 126.41 23.4697C125.52 24.7253 125.52 24.7253 124.074 25C122.46 24.7345 121.511 24.3745 120.299 22.8222C119.257 20.5428 119.088 17.8683 118.814 15.2222C118.608 14.3324 118.608 14.3324 118.399 13.4246C117.664 13.0102 116.93 12.5958 116.173 12.1689C116.173 15.4838 116.173 18.7987 116.173 22.214C116.907 22.4212 117.642 22.6284 118.399 22.8419C118.399 23.4634 118.399 24.085 118.399 24.7253C115.755 24.7253 113.111 24.7253 110.387 24.7253C110.387 24.1038 110.387 23.4822 110.387 22.8419C111.121 22.8419 111.856 22.8419 112.612 22.8419C112.612 16.0049 112.612 9.16794 112.612 2.12379C111.878 1.91661 111.143 1.70943 110.387 1.49597C110.387 1.08161 110.387 0.667244 110.387 0.240326ZM116.173 2.12379C116.173 4.81714 116.173 7.51049 116.173 10.2855C117.054 10.0783 117.936 9.87109 118.844 9.65763C119.934 7.35136 119.874 6.10193 119.734 3.37943C119.44 2.96507 119.146 2.55071 118.844 2.12379C117.962 2.12379 117.081 2.12379 116.173 2.12379Z" fill="white"/>
<path d="M93.3752 0.0712704C93.9606 0.0477512 94.546 0.0242319 95.1491 0C97.4074 0.355066 98.6761 1.60046 100.283 3.78962C102.502 7.69078 102.545 11.141 102.238 15.9965C101.55 19.5516 100.224 21.6071 98.0571 23.6028C95.9533 25.1974 93.7936 25.148 91.468 24.8045C88.808 23.6754 87.1974 21.6712 85.6344 18.5131C84.3171 14.612 84.2779 10.4531 85.2137 6.36272C87.4622 1.98991 89.5511 0.171139 93.3752 0.0712704ZM90.1499 3.92479C88.8332 6.77769 88.6939 8.75625 88.6634 12.1037C88.6518 12.8603 88.6403 13.617 88.6283 14.3966C88.8167 17.2475 89.5358 19.2091 90.6827 21.5409C91.9627 22.7586 93.0836 22.8434 94.6092 22.9171C96.1632 22.0753 96.7295 21.2954 97.6382 19.3388C98.8844 14.7088 98.8354 10.6146 97.7504 5.93019C96.9206 4.14866 96.4065 3.10068 95.0579 2.15531C92.2566 1.6522 92.2566 1.6522 90.1499 3.92479Z" fill="white"/>
<path d="M135.312 0C140.16 0 145.007 0 150.001 0C150.001 2.32692 150.001 4.65385 150.001 7.05128C149.56 6.83974 149.12 6.62821 148.666 6.41026C148.519 5.14103 148.372 3.87179 148.221 2.5641C145.87 2.35256 143.52 2.14103 141.099 1.92308C141.099 4.88462 141.099 7.84615 141.099 10.8974C142.274 10.8974 143.449 10.8974 144.66 10.8974C144.807 9.41667 144.953 7.9359 145.105 6.41026C145.692 6.6218 146.28 6.83333 146.885 7.05128C146.885 10.4359 146.885 13.8205 146.885 17.3077C146.298 17.5192 145.71 17.7308 145.105 17.9487C144.811 16.6795 144.517 15.4103 144.215 14.1026C143.186 13.891 142.158 13.6795 141.099 13.4615C141.099 16.4231 141.099 19.3846 141.099 22.4359C143.302 22.2244 145.505 22.0128 147.775 21.7949C148.216 20.3141 148.657 18.8333 149.111 17.3077C149.404 17.3077 149.698 17.3077 150.001 17.3077C150.001 19.8462 150.001 22.3846 150.001 25C145.301 25 140.6 25 135.758 25C135.537 24.0481 135.537 24.0481 135.312 23.0769C136.047 23.0769 136.781 23.0769 137.538 23.0769C137.538 16.0962 137.538 9.11539 137.538 1.92308C136.804 1.71154 136.069 1.5 135.312 1.28205C135.312 0.858974 135.312 0.435897 135.312 0Z" fill="white"/>
<path d="M25.371 0C25.9586 0 26.5461 0 27.1515 0C27.3286 0.653517 27.5057 1.30704 27.6882 1.98036C28.3479 4.40541 29.0181 6.82418 29.6916 9.24135C29.9815 10.288 30.2685 11.3364 30.5526 12.3864C30.9617 13.8962 31.381 15.3993 31.8024 16.902C31.9273 17.3722 32.0521 17.8423 32.1807 18.3266C32.794 20.4742 33.1514 21.6139 34.5944 22.7417C34.9291 22.8523 35.2637 22.9629 35.6084 23.0769C35.6084 23.7115 35.6084 24.3462 35.6084 25C32.6707 25 29.7331 25 26.7063 25C26.5595 24.3654 26.4126 23.7308 26.2612 23.0769C27.5832 22.7596 27.5832 22.7596 28.9319 22.4359C28.785 21.9467 28.6381 21.4575 28.4868 20.9535C28.0417 19.2308 28.0417 19.2308 28.0417 17.3077C26.279 17.3077 24.5164 17.3077 22.7004 17.3077C22.5535 19 22.4066 20.6923 22.2553 22.4359C22.8428 22.6474 23.4304 22.859 24.0357 23.0769C23.8888 23.7115 23.742 24.3462 23.5906 25C21.5342 25 19.4779 25 17.3592 25C17.1388 24.0481 17.1388 24.0481 16.9141 23.0769C18.236 22.7596 18.236 22.7596 19.5847 22.4359C19.8437 21.277 19.8437 21.277 20.108 20.0947C21.0551 16.003 22.1461 11.9929 23.229 7.97276C23.5384 6.81942 23.5384 6.81942 23.854 5.64278C24.3589 3.76139 24.8646 1.88048 25.371 0ZM24.9259 8.97436C24.4853 10.8782 24.0446 12.7821 23.5906 14.7436C24.7657 14.7436 25.9408 14.7436 27.1515 14.7436C26.7108 12.8397 26.2701 10.9359 25.8161 8.97436C25.5224 8.97436 25.2286 8.97436 24.9259 8.97436Z" fill="white"/>
<path d="M63.2051 0.216428C64.9209 0.160934 66.6365 0.127142 68.3526 0.0972763C68.8383 0.0813025 69.324 0.0653287 69.8244 0.0488709C70.2942 0.0427271 70.764 0.0365833 71.2481 0.0302534C71.6794 0.0202698 72.1107 0.0102861 72.5551 0C73.9942 0.255226 74.8128 0.897653 75.9776 2.12286C76.6841 4.16185 76.6299 6.26556 76.418 8.47762C75.6345 10.4035 74.9958 11.3692 73.6653 12.4891C72.042 13.0746 70.6026 13.0077 68.9307 12.926C69.076 16.0716 69.2214 19.2172 69.3711 22.4581C70.0978 22.6678 70.8245 22.8775 71.5733 23.0936C71.4279 23.7227 71.2826 24.3518 71.1328 25C68.662 25 66.1912 25 63.6455 25C63.4275 24.0563 63.4275 24.0563 63.2051 23.0936C63.9318 23.0936 64.6585 23.0936 65.4072 23.0936C65.4072 16.1732 65.4072 9.2529 65.4072 2.12286C64.6805 2.12286 63.9538 2.12286 63.2051 2.12286C63.2051 1.49374 63.2051 0.864614 63.2051 0.216428ZM68.9307 2.12286C68.9307 4.84905 68.9307 7.57524 68.9307 10.384C69.8027 10.384 70.6748 10.384 71.5733 10.384C72.5303 8.773 72.8524 7.63199 73.0597 5.53854C72.9632 4.02248 72.9632 4.02248 72.3991 2.87748C71.3641 1.78284 71.3641 1.78284 68.9307 2.12286Z" fill="white"/>
<path d="M4.64674 0C7.51984 0 10.3929 0 13.3531 0C13.3531 0.328486 13.3531 0.656972 13.3531 0.995412C12.4458 1.15965 11.5385 1.3239 10.6037 1.49312C10.6776 2.02242 10.7514 2.55171 10.8275 3.09705C11.1539 5.94893 11.1463 8.79479 11.1479 11.665C11.1535 12.2029 11.1591 12.7409 11.1649 13.2952C11.17 16.3679 11.1665 19.487 10.1455 22.3968C8.2111 24.4978 6.89632 24.961 4.21715 24.9786C3.73101 24.9857 3.24488 24.9927 2.74401 25C1.43913 24.8853 1.43913 24.8853 0.0644386 23.8899C-0.0214795 22.5834 -0.0214795 22.5834 0.0644386 21.4014C0.971735 21.155 0.971735 21.155 1.89736 20.9036C2.04858 21.5606 2.19979 22.2176 2.35559 22.8945C2.95803 22.7544 3.55925 22.608 4.15987 22.459C4.49479 22.3781 4.82971 22.2973 5.17478 22.214C6.11629 21.9839 6.11629 21.9839 6.47966 20.9036C6.5517 19.4529 6.59814 18.0123 6.62465 16.5604C6.63417 16.131 6.64369 15.7015 6.65351 15.2591C6.68351 13.8848 6.7105 12.5105 6.73742 11.1362C6.75721 10.2056 6.77719 9.27495 6.79738 8.34435C6.84649 6.06066 6.8929 3.77691 6.93789 1.49312C6.18181 1.49312 5.42573 1.49312 4.64674 1.49312C4.64674 1.00039 4.64674 0.50766 4.64674 0Z" fill="white"/>
<path d="M39.1699 0C42.1076 0 45.0453 0 48.072 0C48.072 0.423077 48.072 0.846154 48.072 1.28205C47.1907 1.91667 47.1907 1.91667 46.2916 2.5641C47.1729 4.89103 48.0542 7.21795 48.9622 9.61538C49.3111 8.82212 49.6599 8.02885 50.0193 7.21154C50.2156 6.76532 50.4118 6.31911 50.614 5.85938C51.1516 4.57361 51.6257 3.2745 52.0779 1.92308C51.4904 1.92308 50.9029 1.92308 50.2975 1.92308C50.2975 1.28846 50.2975 0.653846 50.2975 0C52.5008 0 54.704 0 56.9741 0C56.9741 0.423077 56.9741 0.846154 56.9741 1.28205C56.3406 1.34155 56.3406 1.34155 55.6944 1.40224C55.0059 1.66006 55.0059 1.66006 54.3035 1.92308C53.7781 3.30191 53.7781 3.30191 53.4132 5.12821C53.0491 5.89618 52.6774 6.65672 52.3005 7.41186C50.2475 12.0255 50.1549 17.7358 50.2975 23.0769C51.0319 23.0769 51.7664 23.0769 52.523 23.0769C52.523 23.7115 52.523 24.3462 52.523 25C49.7322 25 46.9414 25 44.0661 25C44.0661 24.3654 44.0661 23.7308 44.0661 23.0769C44.3507 22.9976 44.6352 22.9183 44.9285 22.8365C45.2314 22.7043 45.5344 22.5721 45.8465 22.4359C46.6946 19.9929 46.5547 17.3993 46.2916 14.7436C45.1792 10.5793 43.5825 6.87171 41.8405 3.20513C41.8405 2.78205 41.8405 2.35897 41.8405 1.92308C40.5186 1.60577 40.5186 1.60577 39.1699 1.28205C39.1699 0.858974 39.1699 0.435897 39.1699 0Z" fill="white"/>
</svg>
