<svg width="49" height="48" viewBox="0 0 49 48" fill="none" xmlns="http://www.w3.org/2000/svg">
<rect x="1" y="0.5" width="47" height="47" rx="23.5" stroke="white"/>
<g clip-path="url(#clip0_880_455)">
<path d="M32 20.5975V23.9592C30.4884 23.8092 29.047 23.2468 27.8333 22.3333V26.0833C27.8331 27.1009 27.5462 28.0979 27.0056 28.96C26.4649 29.8221 25.6924 30.5145 24.7764 30.9578C23.8604 31.4011 22.8381 31.5774 21.8265 31.4666C20.815 31.3557 19.8551 30.9621 19.0569 30.3309C18.2587 29.6998 17.6544 28.8565 17.3134 27.8978C16.9723 26.939 16.9081 25.9036 17.1283 24.9101C17.3485 23.9166 17.8441 23.0052 18.5583 22.2803C19.2726 21.5555 20.1765 21.0465 21.1667 20.8117V24.4167C20.8826 24.6297 20.6577 24.9119 20.5133 25.2363C20.3689 25.5608 20.3099 25.9167 20.3418 26.2704C20.3736 26.6241 20.4954 26.9638 20.6955 27.2572C20.8956 27.5505 21.1673 27.7879 21.485 27.9467C21.8026 28.1055 22.1556 28.1805 22.5103 28.1646C22.8651 28.1486 23.2099 28.0422 23.5119 27.8555C23.814 27.6688 24.0634 27.408 24.2363 27.0978C24.4092 26.7877 24.5 26.4385 24.5 26.0833V16.5H27.9025C28.076 17.5237 28.5636 18.468 29.2978 19.2022C30.032 19.9364 30.9763 20.424 32 20.5975Z" stroke="white" stroke-width="1.5" stroke-linecap="round" stroke-linejoin="round"/>
</g>
<defs>
<clipPath id="clip0_880_455">
<rect width="20" height="20" fill="white" transform="translate(14.5 14)"/>
</clipPath>
</defs>
</svg>
